<svg width="604" height="450" viewBox="0 0 604 450" fill="none" xmlns="http://www.w3.org/2000/svg">
<path d="M0.5 50C0.5 22.3858 22.8858 0 50.5 0H553.5C581.114 0 603.5 22.3858 603.5 50V400C603.5 427.614 581.114 450 553.5 450H50.5C22.8858 450 0.5 427.614 0.5 400V50Z" fill="white"/>
<path d="M20.5 50C20.5 33.4315 33.9315 20 50.5 20H554.5C571.069 20 584.5 33.4315 584.5 50V400C584.5 416.569 571.069 430 554.5 430H50.5C33.9315 430 20.5 416.569 20.5 400V50Z" fill="#F7F7F7"/>
<path d="M427.97 387.17C429.27 387.17 430.42 387.46 431.42 388.04C432.44 388.6 433.23 389.4 433.79 390.44C434.37 391.46 434.66 392.64 434.66 393.98C434.66 395.42 434.32 396.69 433.64 397.79C432.96 398.89 432 399.74 430.76 400.34C429.52 400.94 428.09 401.24 426.47 401.24C425.23 401.24 424.01 401.06 422.81 400.7C421.63 400.34 420.61 399.84 419.75 399.2C419.43 398.94 419.19 398.67 419.03 398.39C418.89 398.09 418.82 397.74 418.82 397.34C418.82 396.72 418.99 396.2 419.33 395.78C419.67 395.34 420.09 395.12 420.59 395.12C420.89 395.12 421.14 395.16 421.34 395.24C421.54 395.32 421.84 395.47 422.24 395.69L422.84 395.99C423.46 396.29 424.02 396.53 424.52 396.71C425.04 396.89 425.6 396.98 426.2 396.98C427.32 396.98 428.15 396.76 428.69 396.32C429.23 395.86 429.5 395.15 429.5 394.19C429.5 393.29 429.22 392.59 428.66 392.09C428.1 391.59 427.32 391.34 426.32 391.34C425.72 391.34 425.17 391.39 424.67 391.49C424.19 391.59 423.62 391.77 422.96 392.03C422.54 392.25 422.09 392.36 421.61 392.36C421.05 392.36 420.58 392.2 420.2 391.88C419.82 391.54 419.63 391.1 419.63 390.56V382.43C419.63 381.59 419.85 380.95 420.29 380.51C420.73 380.07 421.36 379.85 422.18 379.85H431.48C433.22 379.85 434.09 380.54 434.09 381.92C434.09 383.32 433.22 384.02 431.48 384.02H425V387.71C425.84 387.35 426.83 387.17 427.97 387.17ZM444.488 401.27C441.868 401.27 439.868 400.34 438.488 398.48C437.108 396.62 436.418 393.93 436.418 390.41C436.418 386.91 437.108 384.23 438.488 382.37C439.868 380.51 441.868 379.58 444.488 379.58C447.088 379.58 449.078 380.51 450.458 382.37C451.858 384.23 452.558 386.91 452.558 390.41C452.558 393.93 451.868 396.62 450.488 398.48C449.108 400.34 447.108 401.27 444.488 401.27ZM444.488 397.1C445.448 397.1 446.138 396.58 446.558 395.54C446.978 394.5 447.188 392.79 447.188 390.41C447.188 388.05 446.978 386.35 446.558 385.31C446.138 384.27 445.448 383.75 444.488 383.75C443.528 383.75 442.838 384.27 442.418 385.31C441.998 386.33 441.788 388.03 441.788 390.41C441.788 392.79 441.998 394.5 442.418 395.54C442.838 396.58 443.528 397.1 444.488 397.1ZM464.457 400.28C464.197 400.72 463.887 401.05 463.527 401.27C463.187 401.49 462.837 401.6 462.477 401.6C461.997 401.6 461.577 401.42 461.217 401.06C460.857 400.7 460.677 400.26 460.677 399.74C460.677 399.28 460.817 398.81 461.097 398.33L471.387 380.57C471.647 380.13 471.947 379.8 472.287 379.58C472.647 379.36 473.007 379.25 473.367 379.25C473.867 379.25 474.287 379.43 474.627 379.79C474.987 380.13 475.167 380.57 475.167 381.11C475.167 381.57 475.027 382.04 474.747 382.52L464.457 400.28ZM459.987 392.42C458.227 392.42 456.847 391.86 455.847 390.74C454.847 389.62 454.347 388.01 454.347 385.91C454.347 383.85 454.847 382.27 455.847 381.17C456.847 380.05 458.227 379.49 459.987 379.49C461.747 379.49 463.127 380.05 464.127 381.17C465.127 382.27 465.627 383.86 465.627 385.94C465.627 388.04 465.127 389.65 464.127 390.77C463.127 391.87 461.747 392.42 459.987 392.42ZM459.987 389.18C460.447 389.18 460.777 388.94 460.977 388.46C461.197 387.96 461.307 387.12 461.307 385.94C461.307 384.8 461.197 383.99 460.977 383.51C460.757 383.01 460.427 382.76 459.987 382.76C459.527 382.76 459.187 383.01 458.967 383.51C458.767 383.99 458.667 384.8 458.667 385.94C458.667 387.12 458.767 387.96 458.967 388.46C459.187 388.94 459.527 389.18 459.987 389.18ZM475.857 401.21C474.097 401.21 472.717 400.65 471.717 399.53C470.717 398.41 470.217 396.8 470.217 394.7C470.217 392.64 470.717 391.06 471.717 389.96C472.717 388.84 474.097 388.28 475.857 388.28C477.617 388.28 478.997 388.84 479.997 389.96C480.997 391.06 481.497 392.65 481.497 394.73C481.497 396.83 480.997 398.44 479.997 399.56C478.997 400.66 477.617 401.21 475.857 401.21ZM475.857 397.97C476.317 397.97 476.647 397.73 476.847 397.25C477.067 396.75 477.177 395.91 477.177 394.73C477.177 393.59 477.067 392.77 476.847 392.27C476.627 391.77 476.297 391.52 475.857 391.52C475.397 391.52 475.057 391.77 474.837 392.27C474.637 392.75 474.537 393.57 474.537 394.73C474.537 395.91 474.637 396.75 474.837 397.25C475.057 397.73 475.397 397.97 475.857 397.97Z" fill="#242331"/>
<path d="M420.209 350.713H423.93C425.648 350.713 427.208 351.292 428.607 352.451C429.148 352.959 429.493 353.327 429.643 353.555C430.606 354.863 431.088 356.279 431.088 357.803V357.91C431.088 359.811 430.365 361.504 428.92 362.988C428.126 363.704 427.348 364.206 426.586 364.492C425.714 364.831 424.857 365 424.018 365H420.209L420.18 364.971V350.742L420.209 350.713ZM422.064 352.617V363.115H423.783C425.45 363.115 426.833 362.503 427.934 361.279C428.786 360.257 429.213 359.118 429.213 357.861C429.213 356.585 428.777 355.436 427.904 354.414C427.39 353.874 426.99 353.535 426.703 353.398C426.449 353.216 426.046 353.027 425.492 352.832C425.004 352.676 424.366 352.598 423.578 352.598H422.084L422.064 352.617ZM434.46 359.16H439.196V359.15C439.085 358.818 438.832 358.441 438.434 358.018C437.94 357.594 437.399 357.383 436.813 357.383C435.921 357.383 435.189 357.855 434.616 358.799L434.46 359.16ZM436.686 355.498H436.97C437.92 355.498 438.835 355.879 439.714 356.641C440.143 357.064 440.44 357.428 440.602 357.734C441.078 358.574 441.315 359.453 441.315 360.371V360.664C441.315 360.846 441.302 360.938 441.276 360.938H434.284C434.434 361.634 434.681 362.155 435.026 362.5C435.554 363.066 436.152 363.35 436.823 363.35C437.669 363.35 438.379 362.923 438.952 362.07C439.063 361.855 439.128 361.745 439.147 361.738C440.267 362.246 440.833 362.507 440.846 362.52C440.755 362.747 440.55 363.089 440.231 363.545C439.274 364.671 438.145 365.234 436.843 365.234H436.804C435.462 365.234 434.31 364.639 433.346 363.447C432.682 362.516 432.35 361.497 432.35 360.391V360.352C432.35 358.828 432.933 357.539 434.098 356.484C434.958 355.827 435.82 355.498 436.686 355.498ZM447.382 355.586H447.627C448.271 355.586 448.938 355.775 449.629 356.152V356.162C449.355 357.399 449.205 358.047 449.179 358.105C448.554 357.695 448.001 357.49 447.519 357.49H447.363C446.738 357.49 446.188 357.721 445.712 358.184C445.354 358.62 445.175 359.447 445.175 360.664V364.961L445.156 364.99H443.33L443.3 364.961V355.791L443.33 355.771H445.156L445.175 355.791V356.494C445.892 355.889 446.627 355.586 447.382 355.586ZM455.413 355.645H455.5C456.763 355.645 457.782 356.025 458.557 356.787C459.299 356.025 460.321 355.645 461.623 355.645H461.926C463.645 355.645 464.862 356.292 465.579 357.588C465.813 358.096 465.93 358.597 465.93 359.092V364.971L465.911 365H464.075L464.055 364.971V359.111C464.055 358.408 463.664 357.923 462.883 357.656C462.642 357.572 462.336 357.529 461.965 357.529H461.584C460.569 357.529 459.911 357.868 459.612 358.545C459.534 358.727 459.495 358.932 459.495 359.16V364.971L459.475 365H457.639L457.62 364.971V359.326C457.62 358.63 457.395 358.154 456.946 357.9C456.601 357.653 456.132 357.529 455.539 357.529H455.383C454.589 357.529 454.026 357.653 453.694 357.9C453.264 358.161 453.049 358.643 453.049 359.346V364.971L453.02 365H451.194L451.164 364.971V355.723L451.194 355.693H453.02L453.049 355.723V356.25H453.059C453.391 356.068 453.827 355.898 454.368 355.742C454.648 355.677 454.996 355.645 455.413 355.645ZM472.759 355.498C473.846 355.498 474.777 355.911 475.552 356.738V355.664L475.581 355.645H477.427L477.446 355.664V364.98L477.427 365H475.581L475.552 364.98V364.033C474.823 364.834 473.885 365.234 472.739 365.234H472.73C471.304 365.234 470.093 364.658 469.097 363.506C468.355 362.575 467.984 361.53 467.984 360.371V360.361C467.984 358.929 468.537 357.692 469.644 356.65C470.562 355.882 471.6 355.498 472.759 355.498ZM469.868 360.361C469.868 361.39 470.311 362.233 471.196 362.891C471.691 363.19 472.16 363.34 472.603 363.34H472.818C473.443 363.34 474.048 363.086 474.634 362.578C475.246 361.953 475.552 361.217 475.552 360.371V360.361C475.552 359.32 475.109 358.48 474.224 357.842C473.736 357.542 473.254 357.393 472.779 357.393H472.622C471.841 357.393 471.135 357.754 470.503 358.477C470.08 359.076 469.868 359.704 469.868 360.361ZM480.34 350.703H482.215L482.225 350.713V355.635H484.646L484.656 355.645V357.52L484.646 357.529H482.225V362.246C482.225 362.611 482.348 362.855 482.596 362.979C482.765 363.07 482.941 363.115 483.123 363.115C483.377 363.115 483.738 363.031 484.207 362.861L484.285 362.822L484.988 364.59C484.832 364.655 484.578 364.74 484.227 364.844C483.81 364.948 483.445 365 483.133 365H483.113C482.495 365 481.915 364.811 481.375 364.434C481.284 364.368 481.163 364.264 481.014 364.121L480.848 363.906C480.743 363.77 480.662 363.636 480.604 363.506C480.428 363.109 480.34 362.712 480.34 362.314V357.529H478.953L478.943 357.52V355.645L478.953 355.635H480.34V350.703ZM488.096 360.381C488.096 361.09 488.328 361.735 488.79 362.314C488.992 362.542 489.148 362.692 489.259 362.764C489.773 363.154 490.333 363.35 490.938 363.35C491.68 363.35 492.338 363.07 492.911 362.51C493.139 362.269 493.298 362.061 493.389 361.885C493.656 361.403 493.79 360.905 493.79 360.391V360.361C493.79 359.613 493.533 358.939 493.018 358.34C492.797 358.105 492.647 357.972 492.569 357.939C492.458 357.848 492.354 357.777 492.257 357.725C491.833 357.497 491.394 357.383 490.938 357.383C490.248 357.383 489.617 357.64 489.044 358.154C488.842 358.356 488.715 358.506 488.663 358.604C488.285 359.131 488.096 359.723 488.096 360.381ZM490.938 355.498C491.999 355.498 492.97 355.84 493.848 356.523C493.972 356.615 494.148 356.777 494.376 357.012C494.825 357.513 495.144 358.027 495.333 358.555C495.561 359.141 495.675 359.749 495.675 360.381C495.675 361.201 495.476 361.989 495.079 362.744C494.942 362.992 494.757 363.262 494.522 363.555C494.268 363.848 494.063 364.053 493.907 364.17C493.731 364.313 493.565 364.434 493.409 364.531C492.634 365 491.827 365.234 490.987 365.234H490.899C490.014 365.234 489.164 364.974 488.35 364.453C488.194 364.336 488.054 364.225 487.93 364.121C487.677 363.906 487.494 363.724 487.384 363.574C487.247 363.418 487.12 363.249 487.003 363.066C486.873 362.858 486.762 362.656 486.671 362.461C486.365 361.784 486.212 361.11 486.212 360.439V360.293C486.212 359.564 486.394 358.831 486.759 358.096C486.863 357.894 486.986 357.689 487.13 357.48C487.24 357.324 487.406 357.126 487.628 356.885C487.947 356.592 488.175 356.403 488.311 356.318C489.112 355.771 489.988 355.498 490.938 355.498ZM497.767 350.703H499.632L499.642 350.713V364.99L499.632 365H497.767L497.757 364.99V350.713L497.767 350.703ZM503.59 360.381C503.59 361.09 503.821 361.735 504.284 362.314C504.485 362.542 504.642 362.692 504.752 362.764C505.267 363.154 505.827 363.35 506.432 363.35C507.174 363.35 507.832 363.07 508.405 362.51C508.633 362.269 508.792 362.061 508.883 361.885C509.15 361.403 509.284 360.905 509.284 360.391V360.361C509.284 359.613 509.026 358.939 508.512 358.34C508.291 358.105 508.141 357.972 508.063 357.939C507.952 357.848 507.848 357.777 507.75 357.725C507.327 357.497 506.888 357.383 506.432 357.383C505.742 357.383 505.11 357.64 504.537 358.154C504.336 358.356 504.209 358.506 504.157 358.604C503.779 359.131 503.59 359.723 503.59 360.381ZM506.432 355.498C507.493 355.498 508.463 355.84 509.342 356.523C509.466 356.615 509.642 356.777 509.87 357.012C510.319 357.513 510.638 358.027 510.827 358.555C511.054 359.141 511.168 359.749 511.168 360.381C511.168 361.201 510.97 361.989 510.573 362.744C510.436 362.992 510.25 363.262 510.016 363.555C509.762 363.848 509.557 364.053 509.401 364.17C509.225 364.313 509.059 364.434 508.903 364.531C508.128 365 507.321 365.234 506.481 365.234H506.393C505.508 365.234 504.658 364.974 503.844 364.453C503.688 364.336 503.548 364.225 503.424 364.121C503.17 363.906 502.988 363.724 502.877 363.574C502.741 363.418 502.614 363.249 502.496 363.066C502.366 362.858 502.256 362.656 502.164 362.461C501.858 361.784 501.705 361.11 501.705 360.439V360.293C501.705 359.564 501.888 358.831 502.252 358.096C502.357 357.894 502.48 357.689 502.623 357.48C502.734 357.324 502.9 357.126 503.121 356.885C503.44 356.592 503.668 356.403 503.805 356.318C504.606 355.771 505.482 355.498 506.432 355.498ZM514.902 359.102C514.902 359.531 515.107 359.915 515.517 360.254C515.953 360.586 516.448 360.752 517.001 360.752H517.04C517.529 360.752 517.981 360.618 518.398 360.352C518.736 360.124 518.967 359.831 519.091 359.473C519.13 359.342 519.15 359.219 519.15 359.102C519.15 358.665 518.941 358.278 518.525 357.939C518.095 357.614 517.594 357.451 517.021 357.451C516.467 357.451 515.973 357.611 515.536 357.93C515.113 358.268 514.902 358.659 514.902 359.102ZM514.579 365.957V365.986C514.579 366.279 514.791 366.559 515.214 366.826C515.787 367.158 516.49 367.324 517.323 367.324H517.431C518.167 367.324 518.818 367.171 519.384 366.865C519.521 366.794 519.664 366.689 519.814 366.553C520.055 366.312 520.175 366.087 520.175 365.879C520.175 365.586 519.96 365.339 519.53 365.137C519.387 365.072 519.202 365.013 518.974 364.961C518.59 364.889 518.254 364.854 517.968 364.854L516.874 364.863C516.379 364.863 515.924 364.834 515.507 364.775C515.383 364.834 515.253 364.912 515.116 365.01C514.758 365.296 514.579 365.612 514.579 365.957ZM520.868 355.508H521.239L521.249 355.518V357.393L521.239 357.402H520.81C520.725 357.402 520.647 357.419 520.575 357.451C520.881 357.965 521.034 358.516 521.034 359.102C521.034 359.798 520.816 360.443 520.38 361.035C520.308 361.146 520.162 361.312 519.941 361.533C519.53 361.898 519.111 362.161 518.681 362.324C518.147 362.533 517.594 362.637 517.021 362.637C516.422 362.637 515.839 362.52 515.273 362.285C515.142 362.389 515.077 362.477 515.077 362.549V362.559C515.077 362.721 515.312 362.839 515.78 362.91C516.099 362.956 516.51 362.979 517.011 362.979L517.841 362.969C519.111 362.969 520.12 363.219 520.868 363.721C520.986 363.792 521.142 363.926 521.337 364.121C521.513 364.31 521.646 364.486 521.738 364.648C521.959 365.052 522.07 365.462 522.07 365.879C522.07 366.523 521.819 367.135 521.318 367.715C521.096 367.949 520.93 368.102 520.82 368.174C520.585 368.343 520.377 368.477 520.195 368.574C520.038 368.659 519.849 368.743 519.628 368.828C519.433 368.9 519.198 368.971 518.925 369.043C518.424 369.154 517.955 369.209 517.519 369.209H517.236C516.48 369.209 515.745 369.082 515.029 368.828C514.729 368.711 514.465 368.584 514.238 368.447C514.068 368.35 513.883 368.216 513.681 368.047C513.446 367.819 513.31 367.673 513.271 367.607C513.134 367.425 513.036 367.269 512.978 367.139C512.789 366.761 512.695 366.393 512.695 366.035V365.879C512.695 365.651 512.747 365.381 512.851 365.068C512.929 364.867 513.03 364.671 513.154 364.482C513.232 364.365 513.359 364.215 513.534 364.033L513.71 363.867C513.521 363.581 513.427 363.275 513.427 362.949V362.881C513.427 362.451 513.606 361.953 513.964 361.387C513.717 361.113 513.557 360.905 513.486 360.762C513.414 360.664 513.326 360.492 513.222 360.244C513.085 359.86 513.017 359.499 513.017 359.16V359.033C513.017 358.447 513.202 357.865 513.573 357.285C513.665 357.148 513.782 357.002 513.925 356.846C514.159 356.611 514.322 356.465 514.413 356.406C514.641 356.237 514.889 356.09 515.155 355.967C515.754 355.7 516.36 355.566 516.972 355.566H517.079C517.815 355.566 518.521 355.752 519.198 356.123C519.348 355.986 519.475 355.889 519.579 355.83C519.957 355.615 520.387 355.508 520.868 355.508ZM526.379 355.645V364.99L526.369 365H524.494L524.484 364.99V355.645H526.379ZM525.393 350.703H525.471C525.757 350.703 526.027 350.814 526.281 351.035C526.535 351.296 526.662 351.585 526.662 351.904V351.963C526.662 352.256 526.551 352.529 526.33 352.783C526.07 353.037 525.78 353.164 525.461 353.164H525.402C525.103 353.164 524.829 353.05 524.582 352.822C524.445 352.679 524.354 352.552 524.309 352.441C524.237 352.279 524.201 352.122 524.201 351.973V351.895C524.201 351.595 524.322 351.315 524.562 351.055L524.709 350.928C524.937 350.778 525.165 350.703 525.393 350.703ZM532.534 355.107C533.725 355.107 534.738 355.479 535.571 356.221C535.76 356.403 535.893 356.546 535.971 356.65L536.089 356.836C536.076 356.855 535.9 356.966 535.561 357.168C535.229 357.37 534.874 357.594 534.497 357.842C534.38 357.699 534.262 357.585 534.145 357.5C533.709 357.168 533.179 357.002 532.554 357.002H532.514C531.831 357.002 531.284 357.165 530.874 357.49C530.646 357.686 530.532 357.897 530.532 358.125C530.532 358.268 530.594 358.379 530.718 358.457C530.841 358.561 531.082 358.675 531.44 358.799C531.935 358.962 532.703 359.134 533.745 359.316C534.083 359.395 534.373 359.486 534.614 359.59C534.842 359.681 535.07 359.805 535.298 359.961C535.402 360.033 535.548 360.163 535.737 360.352C536.212 360.872 536.45 361.458 536.45 362.109V362.139C536.45 362.803 536.203 363.424 535.708 364.004C535.499 364.219 535.35 364.352 535.259 364.404C534.998 364.587 534.783 364.714 534.614 364.785C533.95 365.091 533.244 365.244 532.495 365.244H532.427C531.45 365.244 530.558 364.987 529.751 364.473C529.575 364.355 529.386 364.202 529.184 364.014C528.996 363.831 528.865 363.688 528.794 363.584C528.664 363.421 528.55 363.252 528.452 363.076L530.083 362.139H530.093L530.171 362.275C530.242 362.386 530.356 362.516 530.512 362.666C530.805 362.939 531.17 363.135 531.606 363.252C531.893 363.317 532.179 363.35 532.466 363.35C533.039 363.35 533.55 363.223 533.999 362.969C534.083 362.923 534.188 362.842 534.311 362.725C534.481 362.523 534.565 362.321 534.565 362.119C534.565 361.761 534.289 361.478 533.735 361.27C533.553 361.204 533.218 361.133 532.729 361.055C531.681 360.853 530.9 360.641 530.386 360.42C530.164 360.329 529.946 360.212 529.731 360.068C529.236 359.749 528.911 359.342 528.755 358.848C528.677 358.626 528.637 358.392 528.637 358.145V358.086C528.637 357.467 528.869 356.888 529.331 356.348C529.526 356.146 529.666 356.016 529.751 355.957C529.972 355.794 530.18 355.664 530.376 355.566C531.027 355.26 531.746 355.107 532.534 355.107ZM538.689 350.703H540.564L540.574 350.713V355.635H542.996L543.005 355.645V357.52L542.996 357.529H540.574V362.246C540.574 362.611 540.698 362.855 540.945 362.979C541.114 363.07 541.29 363.115 541.472 363.115C541.726 363.115 542.088 363.031 542.556 362.861L542.634 362.822L543.338 364.59C543.181 364.655 542.927 364.74 542.576 364.844C542.159 364.948 541.795 365 541.482 365H541.463C540.844 365 540.265 364.811 539.724 364.434C539.633 364.368 539.513 364.264 539.363 364.121L539.197 363.906C539.093 363.77 539.011 363.636 538.953 363.506C538.777 363.109 538.689 362.712 538.689 362.314V357.529H537.302L537.293 357.52V355.645L537.302 355.635H538.689V350.703Z" fill="#BDBDBD"/>
<circle cx="399.5" cy="358" r="6" fill="white" stroke="#29F0A8" stroke-width="4"/>
<path d="M432.08 314.62C432.96 314.62 433.61 314.8 434.03 315.16C434.47 315.5 434.69 316.04 434.69 316.78C434.69 317.54 434.47 318.1 434.03 318.46C433.61 318.82 432.96 319 432.08 319H421.13C420.41 319 419.84 318.79 419.42 318.37C419 317.93 418.79 317.38 418.79 316.72C418.79 315.86 419.13 315.08 419.81 314.38L426.17 307.75C427.49 306.37 428.15 305.1 428.15 303.94C428.15 303.26 427.95 302.74 427.55 302.38C427.17 302.02 426.62 301.84 425.9 301.84C425.32 301.84 424.78 301.93 424.28 302.11C423.8 302.27 423.24 302.51 422.6 302.83L422 303.13C421.92 303.17 421.76 303.26 421.52 303.4C421.3 303.52 421.1 303.61 420.92 303.67C420.74 303.73 420.55 303.76 420.35 303.76C419.85 303.76 419.43 303.54 419.09 303.1C418.75 302.64 418.58 302.1 418.58 301.48C418.58 301.04 418.64 300.68 418.76 300.4C418.9 300.12 419.15 299.86 419.51 299.62C420.45 298.98 421.5 298.48 422.66 298.12C423.84 297.76 425 297.58 426.14 297.58C427.62 297.58 428.92 297.83 430.04 298.33C431.16 298.81 432.02 299.51 432.62 300.43C433.24 301.33 433.55 302.37 433.55 303.55C433.55 304.77 433.3 305.89 432.8 306.91C432.32 307.91 431.49 309.03 430.31 310.27L426.05 314.62H432.08ZM444.518 319.27C441.898 319.27 439.898 318.34 438.518 316.48C437.138 314.62 436.448 311.93 436.448 308.41C436.448 304.91 437.138 302.23 438.518 300.37C439.898 298.51 441.898 297.58 444.518 297.58C447.118 297.58 449.108 298.51 450.488 300.37C451.888 302.23 452.588 304.91 452.588 308.41C452.588 311.93 451.898 314.62 450.518 316.48C449.138 318.34 447.138 319.27 444.518 319.27ZM444.518 315.1C445.478 315.1 446.168 314.58 446.588 313.54C447.008 312.5 447.218 310.79 447.218 308.41C447.218 306.05 447.008 304.35 446.588 303.31C446.168 302.27 445.478 301.75 444.518 301.75C443.558 301.75 442.868 302.27 442.448 303.31C442.028 304.33 441.818 306.03 441.818 308.41C441.818 310.79 442.028 312.5 442.448 313.54C442.868 314.58 443.558 315.1 444.518 315.1ZM464.486 318.28C464.226 318.72 463.916 319.05 463.556 319.27C463.216 319.49 462.866 319.6 462.506 319.6C462.026 319.6 461.606 319.42 461.246 319.06C460.886 318.7 460.706 318.26 460.706 317.74C460.706 317.28 460.846 316.81 461.126 316.33L471.416 298.57C471.676 298.13 471.976 297.8 472.316 297.58C472.676 297.36 473.036 297.25 473.396 297.25C473.896 297.25 474.316 297.43 474.656 297.79C475.016 298.13 475.196 298.57 475.196 299.11C475.196 299.57 475.056 300.04 474.776 300.52L464.486 318.28ZM460.016 310.42C458.256 310.42 456.876 309.86 455.876 308.74C454.876 307.62 454.376 306.01 454.376 303.91C454.376 301.85 454.876 300.27 455.876 299.17C456.876 298.05 458.256 297.49 460.016 297.49C461.776 297.49 463.156 298.05 464.156 299.17C465.156 300.27 465.656 301.86 465.656 303.94C465.656 306.04 465.156 307.65 464.156 308.77C463.156 309.87 461.776 310.42 460.016 310.42ZM460.016 307.18C460.476 307.18 460.806 306.94 461.006 306.46C461.226 305.96 461.336 305.12 461.336 303.94C461.336 302.8 461.226 301.99 461.006 301.51C460.786 301.01 460.456 300.76 460.016 300.76C459.556 300.76 459.216 301.01 458.996 301.51C458.796 301.99 458.696 302.8 458.696 303.94C458.696 305.12 458.796 305.96 458.996 306.46C459.216 306.94 459.556 307.18 460.016 307.18ZM475.886 319.21C474.126 319.21 472.746 318.65 471.746 317.53C470.746 316.41 470.246 314.8 470.246 312.7C470.246 310.64 470.746 309.06 471.746 307.96C472.746 306.84 474.126 306.28 475.886 306.28C477.646 306.28 479.026 306.84 480.026 307.96C481.026 309.06 481.526 310.65 481.526 312.73C481.526 314.83 481.026 316.44 480.026 317.56C479.026 318.66 477.646 319.21 475.886 319.21ZM475.886 315.97C476.346 315.97 476.676 315.73 476.876 315.25C477.096 314.75 477.206 313.91 477.206 312.73C477.206 311.59 477.096 310.77 476.876 310.27C476.656 309.77 476.326 309.52 475.886 309.52C475.426 309.52 475.086 309.77 474.866 310.27C474.666 310.75 474.566 311.57 474.566 312.73C474.566 313.91 474.666 314.75 474.866 315.25C475.086 315.73 475.426 315.97 475.886 315.97Z" fill="#242331"/>
<path d="M420.189 268.703H427.865L427.875 268.713V270.588H422.064V274.914H426.664L426.674 274.924V276.779L426.664 276.789H422.064V281.115H427.875V282.99L427.865 283H420.189L420.18 282.99V268.713L420.189 268.703ZM434.304 273.498C435.391 273.498 436.322 273.911 437.096 274.738V273.664L437.126 273.645H438.971L438.991 273.664V282.98L438.971 283H437.126L437.096 282.98V282.033C436.367 282.834 435.43 283.234 434.284 283.234H434.274C432.848 283.234 431.637 282.658 430.641 281.506C429.899 280.575 429.528 279.53 429.528 278.371V278.361C429.528 276.929 430.082 275.692 431.188 274.65C432.106 273.882 433.145 273.498 434.304 273.498ZM431.413 278.361C431.413 279.39 431.856 280.233 432.741 280.891C433.236 281.19 433.705 281.34 434.147 281.34H434.362C434.987 281.34 435.593 281.086 436.179 280.578C436.79 279.953 437.096 279.217 437.096 278.371V278.361C437.096 277.32 436.654 276.48 435.768 275.842C435.28 275.542 434.798 275.393 434.323 275.393H434.167C433.386 275.393 432.679 275.754 432.048 276.477C431.624 277.076 431.413 277.704 431.413 278.361ZM445.742 273.586H445.986C446.63 273.586 447.298 273.775 447.988 274.152V274.162C447.714 275.399 447.565 276.047 447.539 276.105C446.914 275.695 446.36 275.49 445.879 275.49H445.722C445.097 275.49 444.547 275.721 444.072 276.184C443.714 276.62 443.535 277.447 443.535 278.664V282.961L443.515 282.99H441.689L441.66 282.961V273.791L441.689 273.771H443.515L443.535 273.791V274.494C444.251 273.889 444.987 273.586 445.742 273.586ZM454.4 268.703H456.431L463.286 278.918L463.911 279.865H463.921V268.732L463.95 268.703H465.786L465.816 268.732V282.971L465.786 283H463.755C463.404 282.505 462.105 280.565 459.859 277.18L456.245 271.828V282.971L456.226 283H454.4L454.37 282.971V268.732L454.4 268.703ZM469.959 278.381C469.959 279.09 470.19 279.735 470.652 280.314C470.854 280.542 471.01 280.692 471.121 280.764C471.635 281.154 472.195 281.35 472.801 281.35C473.543 281.35 474.201 281.07 474.773 280.51C475.001 280.269 475.161 280.061 475.252 279.885C475.519 279.403 475.652 278.905 475.652 278.391V278.361C475.652 277.613 475.395 276.939 474.881 276.34C474.66 276.105 474.51 275.972 474.432 275.939C474.321 275.848 474.217 275.777 474.119 275.725C473.696 275.497 473.257 275.383 472.801 275.383C472.111 275.383 471.479 275.64 470.906 276.154C470.704 276.356 470.577 276.506 470.525 276.604C470.148 277.131 469.959 277.723 469.959 278.381ZM472.801 273.498C473.862 273.498 474.832 273.84 475.711 274.523C475.835 274.615 476.01 274.777 476.238 275.012C476.688 275.513 477.007 276.027 477.195 276.555C477.423 277.141 477.537 277.749 477.537 278.381C477.537 279.201 477.339 279.989 476.941 280.744C476.805 280.992 476.619 281.262 476.385 281.555C476.131 281.848 475.926 282.053 475.77 282.17C475.594 282.313 475.428 282.434 475.271 282.531C474.497 283 473.689 283.234 472.85 283.234H472.762C471.876 283.234 471.027 282.974 470.213 282.453C470.057 282.336 469.917 282.225 469.793 282.121C469.539 281.906 469.357 281.724 469.246 281.574C469.109 281.418 468.982 281.249 468.865 281.066C468.735 280.858 468.624 280.656 468.533 280.461C468.227 279.784 468.074 279.11 468.074 278.439V278.293C468.074 277.564 468.257 276.831 468.621 276.096C468.725 275.894 468.849 275.689 468.992 275.48C469.103 275.324 469.269 275.126 469.49 274.885C469.809 274.592 470.037 274.403 470.174 274.318C470.975 273.771 471.85 273.498 472.801 273.498ZM482.999 273.107C484.19 273.107 485.203 273.479 486.036 274.221C486.225 274.403 486.358 274.546 486.436 274.65L486.554 274.836C486.54 274.855 486.365 274.966 486.026 275.168C485.694 275.37 485.339 275.594 484.962 275.842C484.845 275.699 484.727 275.585 484.61 275.5C484.174 275.168 483.643 275.002 483.018 275.002H482.979C482.296 275.002 481.749 275.165 481.339 275.49C481.111 275.686 480.997 275.897 480.997 276.125C480.997 276.268 481.059 276.379 481.182 276.457C481.306 276.561 481.547 276.675 481.905 276.799C482.4 276.962 483.168 277.134 484.21 277.316C484.548 277.395 484.838 277.486 485.079 277.59C485.307 277.681 485.535 277.805 485.763 277.961C485.867 278.033 486.013 278.163 486.202 278.352C486.677 278.872 486.915 279.458 486.915 280.109V280.139C486.915 280.803 486.667 281.424 486.173 282.004C485.964 282.219 485.815 282.352 485.723 282.404C485.463 282.587 485.248 282.714 485.079 282.785C484.415 283.091 483.708 283.244 482.96 283.244H482.891C481.915 283.244 481.023 282.987 480.216 282.473C480.04 282.355 479.851 282.202 479.649 282.014C479.46 281.831 479.33 281.688 479.259 281.584C479.128 281.421 479.014 281.252 478.917 281.076L480.548 280.139H480.557L480.636 280.275C480.707 280.386 480.821 280.516 480.977 280.666C481.27 280.939 481.635 281.135 482.071 281.252C482.358 281.317 482.644 281.35 482.93 281.35C483.503 281.35 484.014 281.223 484.464 280.969C484.548 280.923 484.652 280.842 484.776 280.725C484.945 280.523 485.03 280.321 485.03 280.119C485.03 279.761 484.753 279.478 484.2 279.27C484.018 279.204 483.682 279.133 483.194 279.055C482.146 278.853 481.365 278.641 480.85 278.42C480.629 278.329 480.411 278.212 480.196 278.068C479.701 277.749 479.376 277.342 479.22 276.848C479.141 276.626 479.102 276.392 479.102 276.145V276.086C479.102 275.467 479.333 274.888 479.796 274.348C479.991 274.146 480.131 274.016 480.216 273.957C480.437 273.794 480.645 273.664 480.841 273.566C481.492 273.26 482.211 273.107 482.999 273.107ZM490.199 277.16H494.935V277.15C494.824 276.818 494.571 276.441 494.173 276.018C493.679 275.594 493.138 275.383 492.552 275.383C491.66 275.383 490.928 275.855 490.355 276.799L490.199 277.16ZM492.425 273.498H492.709C493.659 273.498 494.574 273.879 495.453 274.641C495.882 275.064 496.179 275.428 496.341 275.734C496.817 276.574 497.054 277.453 497.054 278.371V278.664C497.054 278.846 497.041 278.938 497.015 278.938H490.023C490.173 279.634 490.42 280.155 490.765 280.5C491.293 281.066 491.892 281.35 492.562 281.35C493.408 281.35 494.118 280.923 494.691 280.07C494.802 279.855 494.867 279.745 494.886 279.738C496.006 280.246 496.573 280.507 496.586 280.52C496.494 280.747 496.289 281.089 495.97 281.545C495.013 282.671 493.884 283.234 492.582 283.234H492.543C491.201 283.234 490.049 282.639 489.086 281.447C488.421 280.516 488.089 279.497 488.089 278.391V278.352C488.089 276.828 488.672 275.539 489.838 274.484C490.697 273.827 491.56 273.498 492.425 273.498ZM507.236 271.838C507.236 272.111 507.301 272.342 507.431 272.531C507.646 272.902 507.913 273.332 508.232 273.82C508.303 273.944 508.342 274.009 508.349 274.016C508.765 273.781 509.179 273.508 509.589 273.195C509.739 273.078 509.911 272.922 510.107 272.727C510.374 272.447 510.507 272.202 510.507 271.994V271.916C510.507 271.356 510.243 270.979 509.716 270.783C509.43 270.666 509.153 270.607 508.886 270.607H508.866C508.398 270.607 507.971 270.764 507.587 271.076C507.411 271.245 507.314 271.372 507.294 271.457C507.255 271.522 507.236 271.649 507.236 271.838ZM505.068 279.885C505.068 280.692 505.445 281.245 506.2 281.545C506.422 281.63 506.715 281.672 507.079 281.672C508.186 281.672 509.309 281.245 510.448 280.393C509.439 278.973 508.544 277.691 507.763 276.545C507.431 276.753 507.066 277.017 506.669 277.336C506.513 277.46 506.275 277.674 505.956 277.98L505.771 278.186C505.484 278.518 505.295 278.801 505.204 279.035C505.113 279.276 505.068 279.559 505.068 279.885ZM508.876 268.713C509.521 268.713 510.162 268.876 510.8 269.201C510.982 269.299 511.155 269.413 511.318 269.543C512.034 270.148 512.392 270.939 512.392 271.916C512.392 272.391 512.297 272.801 512.109 273.146C511.711 273.954 510.807 274.768 509.394 275.588C510.129 276.662 510.93 277.811 511.796 279.035L511.884 279.143L512.763 278.264L514.101 279.592C513.502 280.204 513.134 280.572 512.997 280.695L513.876 281.906V281.916C513.837 281.955 513.349 282.316 512.411 283C512.385 283.02 512.369 283.029 512.363 283.029L511.552 281.926C510.087 283.013 508.593 283.557 507.07 283.557C506.412 283.557 505.855 283.456 505.4 283.254C504.488 282.87 503.844 282.238 503.466 281.359C503.277 280.891 503.183 280.419 503.183 279.943V279.807C503.183 279.416 503.241 279.009 503.359 278.586C503.45 278.326 503.551 278.098 503.661 277.902C503.792 277.668 503.967 277.411 504.189 277.131C504.534 276.714 504.934 276.317 505.39 275.939C505.826 275.588 506.2 275.308 506.513 275.1L506.718 274.973C506.249 274.243 505.894 273.661 505.654 273.225C505.445 272.801 505.341 272.355 505.341 271.887V271.77C505.341 270.799 505.807 269.992 506.738 269.348C507.408 268.924 508.121 268.713 508.876 268.713ZM519.477 268.703H528.95L528.96 268.713V270.578L528.95 270.588H525.161V282.99L525.151 283H523.276L523.266 282.99V270.588H519.477L519.468 270.578V268.713L519.477 268.703ZM530.3 268.703H532.185V274.25H532.195C532.527 274.068 532.963 273.898 533.504 273.742C533.783 273.677 534.132 273.645 534.548 273.645H534.636C536.316 273.645 537.52 274.279 538.25 275.549C538.504 276.05 538.63 276.639 538.63 277.316V282.971L538.611 283H536.775L536.755 282.971V277.297C536.755 276.496 536.42 275.969 535.75 275.715C535.47 275.591 535.112 275.529 534.675 275.529H534.519C533.725 275.529 533.162 275.653 532.83 275.9C532.4 276.161 532.185 276.643 532.185 277.346V283H530.3V268.703ZM545.352 273.586H545.596C546.241 273.586 546.908 273.775 547.598 274.152V274.162C547.325 275.399 547.175 276.047 547.149 276.105C546.524 275.695 545.97 275.49 545.489 275.49H545.332C544.707 275.49 544.157 275.721 543.682 276.184C543.324 276.62 543.145 277.447 543.145 278.664V282.961L543.125 282.99H541.299L541.27 282.961V273.791L541.299 273.771H543.125L543.145 273.791V274.494C543.861 273.889 544.597 273.586 545.352 273.586ZM550.404 278.381C550.404 279.09 550.635 279.735 551.097 280.314C551.299 280.542 551.455 280.692 551.566 280.764C552.08 281.154 552.64 281.35 553.245 281.35C553.988 281.35 554.645 281.07 555.218 280.51C555.446 280.269 555.605 280.061 555.696 279.885C555.963 279.403 556.097 278.905 556.097 278.391V278.361C556.097 277.613 555.84 276.939 555.325 276.34C555.104 276.105 554.954 275.972 554.876 275.939C554.765 275.848 554.661 275.777 554.564 275.725C554.14 275.497 553.701 275.383 553.245 275.383C552.555 275.383 551.924 275.64 551.351 276.154C551.149 276.356 551.022 276.506 550.97 276.604C550.592 277.131 550.404 277.723 550.404 278.381ZM553.245 273.498C554.307 273.498 555.277 273.84 556.155 274.523C556.279 274.615 556.455 274.777 556.683 275.012C557.132 275.513 557.451 276.027 557.64 276.555C557.868 277.141 557.982 277.749 557.982 278.381C557.982 279.201 557.783 279.989 557.386 280.744C557.249 280.992 557.064 281.262 556.829 281.555C556.575 281.848 556.37 282.053 556.214 282.17C556.038 282.313 555.872 282.434 555.716 282.531C554.941 283 554.134 283.234 553.294 283.234H553.206C552.321 283.234 551.471 282.974 550.657 282.453C550.501 282.336 550.361 282.225 550.238 282.121C549.984 281.906 549.801 281.724 549.691 281.574C549.554 281.418 549.427 281.249 549.31 281.066C549.18 280.858 549.069 280.656 548.978 280.461C548.672 279.784 548.519 279.11 548.519 278.439V278.293C548.519 277.564 548.701 276.831 549.066 276.096C549.17 275.894 549.293 275.689 549.437 275.48C549.547 275.324 549.713 275.126 549.935 274.885C550.254 274.592 550.482 274.403 550.618 274.318C551.419 273.771 552.295 273.498 553.245 273.498ZM564.244 273.498C565.331 273.498 566.262 273.911 567.037 274.738V273.664L567.066 273.645H568.912L568.932 273.664V282.98L568.912 283H567.066L567.037 282.98V282.033C566.308 282.834 565.37 283.234 564.225 283.234H564.215C562.789 283.234 561.578 282.658 560.582 281.506C559.84 280.575 559.469 279.53 559.469 278.371V278.361C559.469 276.929 560.022 275.692 561.129 274.65C562.047 273.882 563.085 273.498 564.244 273.498ZM561.354 278.361C561.354 279.39 561.796 280.233 562.682 280.891C563.176 281.19 563.645 281.34 564.088 281.34H564.303C564.928 281.34 565.533 281.086 566.119 280.578C566.731 279.953 567.037 279.217 567.037 278.371V278.361C567.037 277.32 566.594 276.48 565.709 275.842C565.221 275.542 564.739 275.393 564.264 275.393H564.107C563.326 275.393 562.62 275.754 561.988 276.477C561.565 277.076 561.354 277.704 561.354 278.361ZM571.825 268.703H573.7L573.71 268.713V273.635H576.132L576.141 273.645V275.52L576.132 275.529H573.71V280.246C573.71 280.611 573.833 280.855 574.081 280.979C574.25 281.07 574.426 281.115 574.608 281.115C574.862 281.115 575.223 281.031 575.692 280.861L575.77 280.822L576.473 282.59C576.317 282.655 576.063 282.74 575.712 282.844C575.295 282.948 574.93 283 574.618 283H574.598C573.98 283 573.401 282.811 572.86 282.434C572.769 282.368 572.649 282.264 572.499 282.121L572.333 281.906C572.229 281.77 572.147 281.636 572.089 281.506C571.913 281.109 571.825 280.712 571.825 280.314V275.529H570.438L570.429 275.52V273.645L570.438 273.635H571.825V268.703Z" fill="#BDBDBD"/>
<circle cx="399.5" cy="276" r="6" fill="white" stroke="#FF77E9" stroke-width="4"/>
<path d="M432.08 232.62C432.96 232.62 433.61 232.8 434.03 233.16C434.47 233.5 434.69 234.04 434.69 234.78C434.69 235.54 434.47 236.1 434.03 236.46C433.61 236.82 432.96 237 432.08 237H421.13C420.41 237 419.84 236.79 419.42 236.37C419 235.93 418.79 235.38 418.79 234.72C418.79 233.86 419.13 233.08 419.81 232.38L426.17 225.75C427.49 224.37 428.15 223.1 428.15 221.94C428.15 221.26 427.95 220.74 427.55 220.38C427.17 220.02 426.62 219.84 425.9 219.84C425.32 219.84 424.78 219.93 424.28 220.11C423.8 220.27 423.24 220.51 422.6 220.83L422 221.13C421.92 221.17 421.76 221.26 421.52 221.4C421.3 221.52 421.1 221.61 420.92 221.67C420.74 221.73 420.55 221.76 420.35 221.76C419.85 221.76 419.43 221.54 419.09 221.1C418.75 220.64 418.58 220.1 418.58 219.48C418.58 219.04 418.64 218.68 418.76 218.4C418.9 218.12 419.15 217.86 419.51 217.62C420.45 216.98 421.5 216.48 422.66 216.12C423.84 215.76 425 215.58 426.14 215.58C427.62 215.58 428.92 215.83 430.04 216.33C431.16 216.81 432.02 217.51 432.62 218.43C433.24 219.33 433.55 220.37 433.55 221.55C433.55 222.77 433.3 223.89 432.8 224.91C432.32 225.91 431.49 227.03 430.31 228.27L426.05 232.62H432.08ZM445.988 223.17C447.288 223.17 448.438 223.46 449.438 224.04C450.458 224.6 451.248 225.4 451.808 226.44C452.388 227.46 452.678 228.64 452.678 229.98C452.678 231.42 452.338 232.69 451.658 233.79C450.978 234.89 450.018 235.74 448.778 236.34C447.538 236.94 446.108 237.24 444.488 237.24C443.248 237.24 442.028 237.06 440.828 236.7C439.648 236.34 438.628 235.84 437.768 235.2C437.448 234.94 437.208 234.67 437.048 234.39C436.908 234.09 436.838 233.74 436.838 233.34C436.838 232.72 437.008 232.2 437.348 231.78C437.688 231.34 438.108 231.12 438.608 231.12C438.908 231.12 439.158 231.16 439.358 231.24C439.558 231.32 439.858 231.47 440.258 231.69L440.858 231.99C441.478 232.29 442.038 232.53 442.538 232.71C443.058 232.89 443.618 232.98 444.218 232.98C445.338 232.98 446.168 232.76 446.708 232.32C447.248 231.86 447.518 231.15 447.518 230.19C447.518 229.29 447.238 228.59 446.678 228.09C446.118 227.59 445.338 227.34 444.338 227.34C443.738 227.34 443.188 227.39 442.688 227.49C442.208 227.59 441.638 227.77 440.978 228.03C440.558 228.25 440.108 228.36 439.628 228.36C439.068 228.36 438.598 228.2 438.218 227.88C437.838 227.54 437.648 227.1 437.648 226.56V218.43C437.648 217.59 437.868 216.95 438.308 216.51C438.748 216.07 439.378 215.85 440.198 215.85H449.498C451.238 215.85 452.108 216.54 452.108 217.92C452.108 219.32 451.238 220.02 449.498 220.02H443.018V223.71C443.858 223.35 444.848 223.17 445.988 223.17ZM464.486 236.28C464.226 236.72 463.916 237.05 463.556 237.27C463.216 237.49 462.866 237.6 462.506 237.6C462.026 237.6 461.606 237.42 461.246 237.06C460.886 236.7 460.706 236.26 460.706 235.74C460.706 235.28 460.846 234.81 461.126 234.33L471.416 216.57C471.676 216.13 471.976 215.8 472.316 215.58C472.676 215.36 473.036 215.25 473.396 215.25C473.896 215.25 474.316 215.43 474.656 215.79C475.016 216.13 475.196 216.57 475.196 217.11C475.196 217.57 475.056 218.04 474.776 218.52L464.486 236.28ZM460.016 228.42C458.256 228.42 456.876 227.86 455.876 226.74C454.876 225.62 454.376 224.01 454.376 221.91C454.376 219.85 454.876 218.27 455.876 217.17C456.876 216.05 458.256 215.49 460.016 215.49C461.776 215.49 463.156 216.05 464.156 217.17C465.156 218.27 465.656 219.86 465.656 221.94C465.656 224.04 465.156 225.65 464.156 226.77C463.156 227.87 461.776 228.42 460.016 228.42ZM460.016 225.18C460.476 225.18 460.806 224.94 461.006 224.46C461.226 223.96 461.336 223.12 461.336 221.94C461.336 220.8 461.226 219.99 461.006 219.51C460.786 219.01 460.456 218.76 460.016 218.76C459.556 218.76 459.216 219.01 458.996 219.51C458.796 219.99 458.696 220.8 458.696 221.94C458.696 223.12 458.796 223.96 458.996 224.46C459.216 224.94 459.556 225.18 460.016 225.18ZM475.886 237.21C474.126 237.21 472.746 236.65 471.746 235.53C470.746 234.41 470.246 232.8 470.246 230.7C470.246 228.64 470.746 227.06 471.746 225.96C472.746 224.84 474.126 224.28 475.886 224.28C477.646 224.28 479.026 224.84 480.026 225.96C481.026 227.06 481.526 228.65 481.526 230.73C481.526 232.83 481.026 234.44 480.026 235.56C479.026 236.66 477.646 237.21 475.886 237.21ZM475.886 233.97C476.346 233.97 476.676 233.73 476.876 233.25C477.096 232.75 477.206 231.91 477.206 230.73C477.206 229.59 477.096 228.77 476.876 228.27C476.656 227.77 476.326 227.52 475.886 227.52C475.426 227.52 475.086 227.77 474.866 228.27C474.666 228.75 474.566 229.57 474.566 230.73C474.566 231.91 474.666 232.75 474.866 233.25C475.086 233.73 475.426 233.97 475.886 233.97Z" fill="#242331"/>
<path d="M426.195 186.703H426.215C428.057 186.703 429.669 187.419 431.049 188.852C431.537 189.411 431.882 189.893 432.084 190.297C432.032 190.342 431.482 190.645 430.434 191.205C430.258 190.886 429.994 190.518 429.643 190.102C428.633 189.086 427.491 188.578 426.215 188.578C424.919 188.578 423.77 189.092 422.768 190.121C421.804 191.208 421.322 192.449 421.322 193.842C421.322 195.456 421.938 196.833 423.168 197.973C424.099 198.728 425.085 199.105 426.127 199.105H426.332C427.478 199.105 428.549 198.633 429.545 197.689C429.968 197.221 430.268 196.814 430.443 196.469L432.094 197.338V197.377C431.872 197.787 431.579 198.22 431.215 198.676C429.796 200.225 428.129 201 426.215 201C424.314 201 422.654 200.238 421.234 198.715C420.043 197.276 419.447 195.665 419.447 193.881V193.822C419.447 192.019 420.053 190.401 421.264 188.969C422.67 187.458 424.314 186.703 426.195 186.703ZM438.112 191.498C439.199 191.498 440.13 191.911 440.905 192.738V191.664L440.934 191.645H442.78L442.8 191.664V200.98L442.78 201H440.934L440.905 200.98V200.033C440.176 200.834 439.238 201.234 438.093 201.234H438.083C436.657 201.234 435.446 200.658 434.45 199.506C433.708 198.575 433.337 197.53 433.337 196.371V196.361C433.337 194.929 433.89 193.692 434.997 192.65C435.915 191.882 436.953 191.498 438.112 191.498ZM435.221 196.361C435.221 197.39 435.664 198.233 436.55 198.891C437.044 199.19 437.513 199.34 437.956 199.34H438.171C438.796 199.34 439.401 199.086 439.987 198.578C440.599 197.953 440.905 197.217 440.905 196.371V196.361C440.905 195.32 440.462 194.48 439.577 193.842C439.089 193.542 438.607 193.393 438.132 193.393H437.975C437.194 193.393 436.488 193.754 435.856 194.477C435.433 195.076 435.221 195.704 435.221 196.361ZM449.55 191.586H449.795C450.439 191.586 451.106 191.775 451.796 192.152V192.162C451.523 193.399 451.373 194.047 451.347 194.105C450.722 193.695 450.169 193.49 449.687 193.49H449.531C448.906 193.49 448.356 193.721 447.88 194.184C447.522 194.62 447.343 195.447 447.343 196.664V200.961L447.324 200.99H445.498L445.468 200.961V191.791L445.498 191.771H447.324L447.343 191.791V192.494C448.06 191.889 448.795 191.586 449.55 191.586ZM460.354 196.352C460.354 195.648 460.136 195.02 459.7 194.467C459.654 194.402 459.54 194.281 459.358 194.105C459.162 193.93 458.967 193.793 458.772 193.695C458.336 193.487 457.929 193.383 457.551 193.383C456.705 193.383 455.989 193.708 455.403 194.359C454.914 194.952 454.67 195.616 454.67 196.352V196.391C454.67 196.833 454.765 197.263 454.954 197.68C455.064 197.921 455.23 198.171 455.452 198.432C456.037 199.044 456.728 199.35 457.522 199.35C457.912 199.35 458.306 199.258 458.704 199.076C458.853 199.005 459.032 198.891 459.241 198.734L459.416 198.578C459.573 198.422 459.693 198.285 459.778 198.168C460.162 197.628 460.354 197.038 460.354 196.4V196.352ZM462.239 186.713V201H460.354V200.023C460.243 200.141 460.136 200.248 460.032 200.346C459.836 200.508 459.664 200.635 459.514 200.727C459.319 200.844 459.097 200.945 458.85 201.029C458.355 201.166 457.935 201.234 457.59 201.234H457.463C456.623 201.234 455.819 200.997 455.051 200.521C454.895 200.43 454.726 200.313 454.543 200.17C454.387 200.046 454.182 199.841 453.928 199.555C453.694 199.262 453.511 198.992 453.381 198.744C452.978 197.989 452.776 197.198 452.776 196.371C452.776 195.746 452.89 195.141 453.118 194.555C453.313 194.034 453.635 193.516 454.084 193.002C454.312 192.774 454.485 192.615 454.602 192.523C455.481 191.84 456.448 191.498 457.502 191.498H457.512C458.424 191.498 459.234 191.781 459.944 192.348C460.113 192.484 460.246 192.618 460.344 192.748H460.354V186.713L460.364 186.703H462.229L462.239 186.713ZM466.909 191.645V200.99L466.9 201H465.025L465.015 200.99V191.645H466.909ZM465.923 186.703H466.001C466.288 186.703 466.558 186.814 466.812 187.035C467.066 187.296 467.193 187.585 467.193 187.904V187.963C467.193 188.256 467.082 188.529 466.861 188.783C466.6 189.037 466.31 189.164 465.991 189.164H465.933C465.633 189.164 465.36 189.05 465.112 188.822C464.976 188.679 464.885 188.552 464.839 188.441C464.767 188.279 464.732 188.122 464.732 187.973V187.895C464.732 187.595 464.852 187.315 465.093 187.055L465.239 186.928C465.467 186.778 465.695 186.703 465.923 186.703ZM470.955 196.381C470.955 197.09 471.186 197.735 471.648 198.314C471.85 198.542 472.007 198.692 472.117 198.764C472.632 199.154 473.191 199.35 473.797 199.35C474.539 199.35 475.197 199.07 475.77 198.51C475.997 198.269 476.157 198.061 476.248 197.885C476.515 197.403 476.648 196.905 476.648 196.391V196.361C476.648 195.613 476.391 194.939 475.877 194.34C475.656 194.105 475.506 193.972 475.428 193.939C475.317 193.848 475.213 193.777 475.115 193.725C474.692 193.497 474.253 193.383 473.797 193.383C473.107 193.383 472.475 193.64 471.902 194.154C471.701 194.356 471.574 194.506 471.521 194.604C471.144 195.131 470.955 195.723 470.955 196.381ZM473.797 191.498C474.858 191.498 475.828 191.84 476.707 192.523C476.831 192.615 477.007 192.777 477.234 193.012C477.684 193.513 478.003 194.027 478.191 194.555C478.419 195.141 478.533 195.749 478.533 196.381C478.533 197.201 478.335 197.989 477.938 198.744C477.801 198.992 477.615 199.262 477.381 199.555C477.127 199.848 476.922 200.053 476.766 200.17C476.59 200.313 476.424 200.434 476.268 200.531C475.493 201 474.686 201.234 473.846 201.234H473.758C472.872 201.234 472.023 200.974 471.209 200.453C471.053 200.336 470.913 200.225 470.789 200.121C470.535 199.906 470.353 199.724 470.242 199.574C470.105 199.418 469.979 199.249 469.861 199.066C469.731 198.858 469.62 198.656 469.529 198.461C469.223 197.784 469.07 197.11 469.07 196.439V196.293C469.07 195.564 469.253 194.831 469.617 194.096C469.721 193.894 469.845 193.689 469.988 193.48C470.099 193.324 470.265 193.126 470.486 192.885C470.805 192.592 471.033 192.403 471.17 192.318C471.971 191.771 472.846 191.498 473.797 191.498ZM480.626 186.703H482.491L482.501 186.713V200.99L482.491 201H480.626L480.616 200.99V186.713L480.626 186.703ZM486.449 196.381C486.449 197.09 486.68 197.735 487.142 198.314C487.344 198.542 487.5 198.692 487.611 198.764C488.125 199.154 488.685 199.35 489.291 199.35C490.033 199.35 490.69 199.07 491.263 198.51C491.491 198.269 491.651 198.061 491.742 197.885C492.009 197.403 492.142 196.905 492.142 196.391V196.361C492.142 195.613 491.885 194.939 491.371 194.34C491.149 194.105 491 193.972 490.921 193.939C490.811 193.848 490.707 193.777 490.609 193.725C490.186 193.497 489.746 193.383 489.291 193.383C488.601 193.383 487.969 193.64 487.396 194.154C487.194 194.356 487.067 194.506 487.015 194.604C486.638 195.131 486.449 195.723 486.449 196.381ZM489.291 191.498C490.352 191.498 491.322 191.84 492.201 192.523C492.324 192.615 492.5 192.777 492.728 193.012C493.177 193.513 493.496 194.027 493.685 194.555C493.913 195.141 494.027 195.749 494.027 196.381C494.027 197.201 493.828 197.989 493.431 198.744C493.295 198.992 493.109 199.262 492.875 199.555C492.621 199.848 492.416 200.053 492.259 200.17C492.084 200.313 491.918 200.434 491.761 200.531C490.987 201 490.179 201.234 489.339 201.234H489.252C488.366 201.234 487.517 200.974 486.703 200.453C486.546 200.336 486.407 200.225 486.283 200.121C486.029 199.906 485.847 199.724 485.736 199.574C485.599 199.418 485.472 199.249 485.355 199.066C485.225 198.858 485.114 198.656 485.023 198.461C484.717 197.784 484.564 197.11 484.564 196.439V196.293C484.564 195.564 484.746 194.831 485.111 194.096C485.215 193.894 485.339 193.689 485.482 193.48C485.593 193.324 485.759 193.126 485.98 192.885C486.299 192.592 486.527 192.403 486.664 192.318C487.464 191.771 488.34 191.498 489.291 191.498ZM497.76 195.102C497.76 195.531 497.965 195.915 498.375 196.254C498.812 196.586 499.306 196.752 499.86 196.752H499.899C500.387 196.752 500.84 196.618 501.256 196.352C501.595 196.124 501.826 195.831 501.95 195.473C501.989 195.342 502.008 195.219 502.008 195.102C502.008 194.665 501.8 194.278 501.383 193.939C500.954 193.614 500.452 193.451 499.879 193.451C499.326 193.451 498.831 193.611 498.395 193.93C497.972 194.268 497.76 194.659 497.76 195.102ZM497.438 201.957V201.986C497.438 202.279 497.649 202.559 498.073 202.826C498.646 203.158 499.349 203.324 500.182 203.324H500.289C501.025 203.324 501.676 203.171 502.243 202.865C502.379 202.794 502.523 202.689 502.672 202.553C502.913 202.312 503.034 202.087 503.034 201.879C503.034 201.586 502.819 201.339 502.389 201.137C502.246 201.072 502.06 201.013 501.832 200.961C501.448 200.889 501.113 200.854 500.827 200.854L499.733 200.863C499.238 200.863 498.782 200.834 498.366 200.775C498.242 200.834 498.112 200.912 497.975 201.01C497.617 201.296 497.438 201.612 497.438 201.957ZM503.727 191.508H504.098L504.108 191.518V193.393L504.098 193.402H503.668C503.584 193.402 503.506 193.419 503.434 193.451C503.74 193.965 503.893 194.516 503.893 195.102C503.893 195.798 503.675 196.443 503.239 197.035C503.167 197.146 503.021 197.312 502.799 197.533C502.389 197.898 501.969 198.161 501.539 198.324C501.006 198.533 500.452 198.637 499.879 198.637C499.28 198.637 498.698 198.52 498.131 198.285C498.001 198.389 497.936 198.477 497.936 198.549V198.559C497.936 198.721 498.17 198.839 498.639 198.91C498.958 198.956 499.368 198.979 499.87 198.979L500.7 198.969C501.969 198.969 502.978 199.219 503.727 199.721C503.844 199.792 504 199.926 504.196 200.121C504.371 200.31 504.505 200.486 504.596 200.648C504.817 201.052 504.928 201.462 504.928 201.879C504.928 202.523 504.677 203.135 504.176 203.715C503.955 203.949 503.789 204.102 503.678 204.174C503.444 204.343 503.235 204.477 503.053 204.574C502.897 204.659 502.708 204.743 502.487 204.828C502.291 204.9 502.057 204.971 501.784 205.043C501.282 205.154 500.814 205.209 500.377 205.209H500.094C499.339 205.209 498.603 205.082 497.887 204.828C497.588 204.711 497.324 204.584 497.096 204.447C496.927 204.35 496.741 204.216 496.539 204.047C496.305 203.819 496.168 203.673 496.129 203.607C495.993 203.425 495.895 203.269 495.836 203.139C495.648 202.761 495.553 202.393 495.553 202.035V201.879C495.553 201.651 495.605 201.381 495.709 201.068C495.787 200.867 495.888 200.671 496.012 200.482C496.09 200.365 496.217 200.215 496.393 200.033L496.569 199.867C496.38 199.581 496.286 199.275 496.286 198.949V198.881C496.286 198.451 496.465 197.953 496.823 197.387C496.575 197.113 496.416 196.905 496.344 196.762C496.273 196.664 496.185 196.492 496.08 196.244C495.944 195.86 495.875 195.499 495.875 195.16V195.033C495.875 194.447 496.061 193.865 496.432 193.285C496.523 193.148 496.64 193.002 496.784 192.846C497.018 192.611 497.181 192.465 497.272 192.406C497.5 192.237 497.747 192.09 498.014 191.967C498.613 191.7 499.218 191.566 499.83 191.566H499.938C500.674 191.566 501.38 191.752 502.057 192.123C502.207 191.986 502.334 191.889 502.438 191.83C502.815 191.615 503.245 191.508 503.727 191.508ZM508.251 191.645C508.258 191.651 508.287 191.716 508.339 191.84L509.726 195.131L511.22 198.637C511.239 198.598 511.379 198.272 511.64 197.66L512.939 194.701L514.286 191.645H516.347L514.257 196.42L512.509 200.414L510.702 204.545L510.409 205.209H508.349L508.339 205.199L510.195 201L508.28 196.625L506.327 192.191L506.093 191.645H508.251Z" fill="#BDBDBD"/>
<circle cx="399.5" cy="194" r="6" fill="white" stroke="#704CFF" stroke-width="4"/>
<path d="M432.86 151.62C433.76 151.62 434.42 151.8 434.84 152.16C435.26 152.52 435.47 153.06 435.47 153.78C435.47 155.26 434.6 156 432.86 156H422.45C420.71 156 419.84 155.26 419.84 153.78C419.84 153.06 420.05 152.52 420.47 152.16C420.89 151.8 421.55 151.62 422.45 151.62H424.88V140.79L422.48 142.2C422.14 142.4 421.79 142.5 421.43 142.5C420.87 142.5 420.39 142.26 419.99 141.78C419.59 141.28 419.39 140.73 419.39 140.13C419.39 139.31 419.74 138.69 420.44 138.27L425.24 135.48C426.12 134.98 426.95 134.73 427.73 134.73C428.53 134.73 429.17 134.97 429.65 135.45C430.15 135.93 430.4 136.58 430.4 137.4V151.62H432.86ZM444.488 156.27C441.868 156.27 439.868 155.34 438.488 153.48C437.108 151.62 436.418 148.93 436.418 145.41C436.418 141.91 437.108 139.23 438.488 137.37C439.868 135.51 441.868 134.58 444.488 134.58C447.088 134.58 449.078 135.51 450.458 137.37C451.858 139.23 452.558 141.91 452.558 145.41C452.558 148.93 451.868 151.62 450.488 153.48C449.108 155.34 447.108 156.27 444.488 156.27ZM444.488 152.1C445.448 152.1 446.138 151.58 446.558 150.54C446.978 149.5 447.188 147.79 447.188 145.41C447.188 143.05 446.978 141.35 446.558 140.31C446.138 139.27 445.448 138.75 444.488 138.75C443.528 138.75 442.838 139.27 442.418 140.31C441.998 141.33 441.788 143.03 441.788 145.41C441.788 147.79 441.998 149.5 442.418 150.54C442.838 151.58 443.528 152.1 444.488 152.1ZM464.457 155.28C464.197 155.72 463.887 156.05 463.527 156.27C463.187 156.49 462.837 156.6 462.477 156.6C461.997 156.6 461.577 156.42 461.217 156.06C460.857 155.7 460.677 155.26 460.677 154.74C460.677 154.28 460.817 153.81 461.097 153.33L471.387 135.57C471.647 135.13 471.947 134.8 472.287 134.58C472.647 134.36 473.007 134.25 473.367 134.25C473.867 134.25 474.287 134.43 474.627 134.79C474.987 135.13 475.167 135.57 475.167 136.11C475.167 136.57 475.027 137.04 474.747 137.52L464.457 155.28ZM459.987 147.42C458.227 147.42 456.847 146.86 455.847 145.74C454.847 144.62 454.347 143.01 454.347 140.91C454.347 138.85 454.847 137.27 455.847 136.17C456.847 135.05 458.227 134.49 459.987 134.49C461.747 134.49 463.127 135.05 464.127 136.17C465.127 137.27 465.627 138.86 465.627 140.94C465.627 143.04 465.127 144.65 464.127 145.77C463.127 146.87 461.747 147.42 459.987 147.42ZM459.987 144.18C460.447 144.18 460.777 143.94 460.977 143.46C461.197 142.96 461.307 142.12 461.307 140.94C461.307 139.8 461.197 138.99 460.977 138.51C460.757 138.01 460.427 137.76 459.987 137.76C459.527 137.76 459.187 138.01 458.967 138.51C458.767 138.99 458.667 139.8 458.667 140.94C458.667 142.12 458.767 142.96 458.967 143.46C459.187 143.94 459.527 144.18 459.987 144.18ZM475.857 156.21C474.097 156.21 472.717 155.65 471.717 154.53C470.717 153.41 470.217 151.8 470.217 149.7C470.217 147.64 470.717 146.06 471.717 144.96C472.717 143.84 474.097 143.28 475.857 143.28C477.617 143.28 478.997 143.84 479.997 144.96C480.997 146.06 481.497 147.65 481.497 149.73C481.497 151.83 480.997 153.44 479.997 154.56C478.997 155.66 477.617 156.21 475.857 156.21ZM475.857 152.97C476.317 152.97 476.647 152.73 476.847 152.25C477.067 151.75 477.177 150.91 477.177 149.73C477.177 148.59 477.067 147.77 476.847 147.27C476.627 146.77 476.297 146.52 475.857 146.52C475.397 146.52 475.057 146.77 474.837 147.27C474.637 147.75 474.537 148.57 474.537 149.73C474.537 150.91 474.637 151.75 474.837 152.25C475.057 152.73 475.397 152.97 475.857 152.97Z" fill="#242331"/>
<path d="M420.209 105.713H423.93C425.648 105.713 427.208 106.292 428.607 107.451C429.148 107.959 429.493 108.327 429.643 108.555C430.606 109.863 431.088 111.279 431.088 112.803V112.91C431.088 114.811 430.365 116.504 428.92 117.988C428.126 118.704 427.348 119.206 426.586 119.492C425.714 119.831 424.857 120 424.018 120H420.209L420.18 119.971V105.742L420.209 105.713ZM422.064 107.617V118.115H423.783C425.45 118.115 426.833 117.503 427.934 116.279C428.786 115.257 429.213 114.118 429.213 112.861C429.213 111.585 428.777 110.436 427.904 109.414C427.39 108.874 426.99 108.535 426.703 108.398C426.449 108.216 426.046 108.027 425.492 107.832C425.004 107.676 424.366 107.598 423.578 107.598H422.084L422.064 107.617ZM434.46 114.16H439.196V114.15C439.085 113.818 438.832 113.441 438.434 113.018C437.94 112.594 437.399 112.383 436.813 112.383C435.921 112.383 435.189 112.855 434.616 113.799L434.46 114.16ZM436.686 110.498H436.97C437.92 110.498 438.835 110.879 439.714 111.641C440.143 112.064 440.44 112.428 440.602 112.734C441.078 113.574 441.315 114.453 441.315 115.371V115.664C441.315 115.846 441.302 115.938 441.276 115.938H434.284C434.434 116.634 434.681 117.155 435.026 117.5C435.554 118.066 436.152 118.35 436.823 118.35C437.669 118.35 438.379 117.923 438.952 117.07C439.063 116.855 439.128 116.745 439.147 116.738C440.267 117.246 440.833 117.507 440.846 117.52C440.755 117.747 440.55 118.089 440.231 118.545C439.274 119.671 438.145 120.234 436.843 120.234H436.804C435.462 120.234 434.31 119.639 433.346 118.447C432.682 117.516 432.35 116.497 432.35 115.391V115.352C432.35 113.828 432.933 112.539 434.098 111.484C434.958 110.827 435.82 110.498 436.686 110.498ZM447.548 110.645H447.636C449.316 110.645 450.52 111.279 451.25 112.549C451.504 113.05 451.63 113.639 451.63 114.316V119.971L451.611 120H449.775L449.755 119.971V114.297C449.755 113.496 449.42 112.969 448.75 112.715C448.47 112.591 448.112 112.529 447.675 112.529H447.519C446.725 112.529 446.162 112.653 445.83 112.9C445.4 113.161 445.185 113.643 445.185 114.346V119.971L445.156 120H443.33L443.3 119.971V110.723L443.33 110.693H445.156L445.185 110.723V111.25H445.195C445.527 111.068 445.963 110.898 446.504 110.742C446.783 110.677 447.132 110.645 447.548 110.645ZM454.495 105.703H456.37L456.379 105.713V110.635H458.801L458.811 110.645V112.52L458.801 112.529H456.379V117.246C456.379 117.611 456.503 117.855 456.75 117.979C456.92 118.07 457.095 118.115 457.278 118.115C457.532 118.115 457.893 118.031 458.362 117.861L458.44 117.822L459.143 119.59C458.987 119.655 458.733 119.74 458.381 119.844C457.965 119.948 457.6 120 457.287 120H457.268C456.649 120 456.07 119.811 455.53 119.434C455.439 119.368 455.318 119.264 455.168 119.121L455.002 118.906C454.898 118.77 454.817 118.636 454.758 118.506C454.582 118.109 454.495 117.712 454.495 117.314V112.529H453.108L453.098 112.52V110.645L453.108 110.635H454.495V105.703ZM462.964 110.645V119.99L462.954 120H461.079L461.07 119.99V110.645H462.964ZM461.978 105.703H462.056C462.342 105.703 462.612 105.814 462.866 106.035C463.12 106.296 463.247 106.585 463.247 106.904V106.963C463.247 107.256 463.137 107.529 462.915 107.783C462.655 108.037 462.365 108.164 462.046 108.164H461.987C461.688 108.164 461.415 108.05 461.167 107.822C461.03 107.679 460.939 107.552 460.894 107.441C460.822 107.279 460.786 107.122 460.786 106.973V106.895C460.786 106.595 460.907 106.315 461.148 106.055L461.294 105.928C461.522 105.778 461.75 105.703 461.978 105.703ZM469.119 110.107C470.311 110.107 471.323 110.479 472.156 111.221C472.345 111.403 472.479 111.546 472.557 111.65L472.674 111.836C472.661 111.855 472.485 111.966 472.146 112.168C471.814 112.37 471.46 112.594 471.082 112.842C470.965 112.699 470.848 112.585 470.73 112.5C470.294 112.168 469.764 112.002 469.139 112.002H469.1C468.416 112.002 467.869 112.165 467.459 112.49C467.231 112.686 467.117 112.897 467.117 113.125C467.117 113.268 467.179 113.379 467.303 113.457C467.426 113.561 467.667 113.675 468.025 113.799C468.52 113.962 469.288 114.134 470.33 114.316C470.669 114.395 470.958 114.486 471.199 114.59C471.427 114.681 471.655 114.805 471.883 114.961C471.987 115.033 472.133 115.163 472.322 115.352C472.798 115.872 473.035 116.458 473.035 117.109V117.139C473.035 117.803 472.788 118.424 472.293 119.004C472.085 119.219 471.935 119.352 471.844 119.404C471.583 119.587 471.368 119.714 471.199 119.785C470.535 120.091 469.829 120.244 469.08 120.244H469.012C468.035 120.244 467.143 119.987 466.336 119.473C466.16 119.355 465.971 119.202 465.77 119.014C465.581 118.831 465.451 118.688 465.379 118.584C465.249 118.421 465.135 118.252 465.037 118.076L466.668 117.139H466.678L466.756 117.275C466.827 117.386 466.941 117.516 467.098 117.666C467.391 117.939 467.755 118.135 468.191 118.252C468.478 118.317 468.764 118.35 469.051 118.35C469.624 118.35 470.135 118.223 470.584 117.969C470.669 117.923 470.773 117.842 470.896 117.725C471.066 117.523 471.15 117.321 471.15 117.119C471.15 116.761 470.874 116.478 470.32 116.27C470.138 116.204 469.803 116.133 469.314 116.055C468.266 115.853 467.485 115.641 466.971 115.42C466.749 115.329 466.531 115.212 466.316 115.068C465.822 114.749 465.496 114.342 465.34 113.848C465.262 113.626 465.223 113.392 465.223 113.145V113.086C465.223 112.467 465.454 111.888 465.916 111.348C466.111 111.146 466.251 111.016 466.336 110.957C466.557 110.794 466.766 110.664 466.961 110.566C467.612 110.26 468.331 110.107 469.119 110.107ZM475.274 105.703H477.149L477.159 105.713V110.635H479.581L479.591 110.645V112.52L479.581 112.529H477.159V117.246C477.159 117.611 477.283 117.855 477.53 117.979C477.699 118.07 477.875 118.115 478.057 118.115C478.311 118.115 478.673 118.031 479.141 117.861L479.22 117.822L479.923 119.59C479.766 119.655 479.513 119.74 479.161 119.844C478.744 119.948 478.38 120 478.067 120H478.048C477.429 120 476.85 119.811 476.309 119.434C476.218 119.368 476.098 119.264 475.948 119.121L475.782 118.906C475.678 118.77 475.596 118.636 475.538 118.506C475.362 118.109 475.274 117.712 475.274 117.314V112.529H473.888L473.878 112.52V110.645L473.888 110.635H475.274V105.703Z" fill="#BDBDBD"/>
<circle cx="399.5" cy="113" r="6" fill="white" stroke="#FFC700" stroke-width="4"/>
<path d="M217.014 131.816V189.565C259.415 189.565 293.819 223.964 293.819 266.422C293.819 308.851 259.443 343.279 217.014 343.279C174.585 343.279 140.21 308.88 140.21 266.422C140.21 250.105 145.332 235.013 153.983 222.569H153.954L101.85 196.827C89.5572 217.13 82.5 240.936 82.5 266.394C82.5 340.716 142.714 401 217.014 401C291.286 401 351.528 340.745 351.528 266.394C351.5 192.071 291.286 131.816 217.014 131.816Z" fill="#29F0A8"/>
<path d="M90.3828 176.011L142.487 201.725H142.515C156.402 181.791 179.423 168.721 205.547 168.721V111C156.715 111 113.945 137.056 90.3828 176.011Z" fill="#FFC700"/>
<path d="M351.5 266.394C351.5 241.876 344.927 218.896 333.459 199.105H254.065C277.741 212.204 293.819 237.405 293.819 266.394C293.819 308.823 259.443 343.251 217.015 343.251V401C291.286 401 351.5 340.745 351.5 266.394Z" fill="#704DFF"/>
<path d="M217.015 131.816V189.565C259.415 189.565 293.819 223.964 293.819 266.422H351.529C351.5 192.071 291.286 131.816 217.015 131.816Z" fill="#FF77E9"/>
<path d="M187.525 262.18C186.085 262.18 184.832 261.887 183.765 261.3C182.712 260.7 181.898 259.86 181.325 258.78C180.752 257.687 180.465 256.407 180.465 254.94C180.465 253.473 180.752 252.2 181.325 251.12C181.898 250.027 182.712 249.187 183.765 248.6C184.832 248.013 186.085 247.72 187.525 247.72C188.965 247.72 190.212 248.013 191.265 248.6C192.332 249.187 193.145 250.027 193.705 251.12C194.278 252.2 194.565 253.473 194.565 254.94C194.565 256.407 194.278 257.687 193.705 258.78C193.132 259.86 192.312 260.7 191.245 261.3C190.192 261.887 188.952 262.18 187.525 262.18ZM187.525 259.36C188.592 259.36 189.425 258.987 190.025 258.24C190.625 257.48 190.925 256.38 190.925 254.94C190.925 253.5 190.618 252.407 190.005 251.66C189.405 250.913 188.578 250.54 187.525 250.54C186.458 250.54 185.625 250.913 185.025 251.66C184.425 252.393 184.125 253.487 184.125 254.94C184.125 256.393 184.425 257.493 185.025 258.24C185.625 258.987 186.458 259.36 187.525 259.36ZM203.083 252.96C203.23 252.627 203.43 252.38 203.683 252.22C203.95 252.06 204.236 251.98 204.543 251.98C204.983 251.98 205.37 252.127 205.703 252.42C206.05 252.713 206.223 253.067 206.223 253.48C206.223 253.707 206.17 253.927 206.063 254.14L202.563 261.1C202.403 261.433 202.17 261.693 201.863 261.88C201.57 262.053 201.243 262.14 200.883 262.14C200.523 262.14 200.19 262.053 199.883 261.88C199.576 261.693 199.343 261.433 199.183 261.1L195.683 254.14C195.576 253.9 195.523 253.687 195.523 253.5C195.523 253.073 195.703 252.713 196.063 252.42C196.436 252.113 196.863 251.96 197.343 251.96C197.663 251.96 197.956 252.047 198.223 252.22C198.503 252.38 198.716 252.627 198.863 252.96L200.983 257.54L203.083 252.96ZM215.108 258.84C215.415 258.84 215.662 258.96 215.848 259.2C216.048 259.44 216.148 259.753 216.148 260.14C216.148 260.673 215.888 261.08 215.368 261.36C214.915 261.587 214.375 261.78 213.748 261.94C213.135 262.087 212.568 262.16 212.048 262.16C210.955 262.16 210.002 261.953 209.188 261.54C208.375 261.127 207.748 260.533 207.308 259.76C206.868 258.987 206.648 258.08 206.648 257.04C206.648 256.053 206.855 255.173 207.268 254.4C207.695 253.613 208.282 253.007 209.028 252.58C209.788 252.14 210.642 251.92 211.588 251.92C212.508 251.92 213.315 252.12 214.008 252.52C214.702 252.92 215.235 253.487 215.608 254.22C215.995 254.953 216.188 255.813 216.188 256.8C216.188 257.107 216.115 257.347 215.968 257.52C215.835 257.68 215.635 257.76 215.368 257.76H210.088C210.182 258.4 210.388 258.86 210.708 259.14C211.028 259.42 211.502 259.56 212.128 259.56C212.462 259.56 212.768 259.527 213.048 259.46C213.328 259.38 213.642 259.273 213.988 259.14C214.188 259.06 214.382 258.993 214.568 258.94C214.768 258.873 214.948 258.84 215.108 258.84ZM211.688 254.32C211.222 254.32 210.848 254.473 210.568 254.78C210.288 255.073 210.122 255.507 210.068 256.08H213.208C213.128 254.907 212.622 254.32 211.688 254.32ZM224.051 251.96C224.505 251.92 224.865 252.027 225.131 252.28C225.398 252.52 225.531 252.88 225.531 253.36C225.531 253.893 225.405 254.28 225.151 254.52C224.911 254.76 224.471 254.913 223.831 254.98L223.231 255.04C222.565 255.12 222.085 255.333 221.791 255.68C221.511 256.013 221.371 256.473 221.371 257.06V260.48C221.371 261.027 221.198 261.44 220.851 261.72C220.518 261.987 220.098 262.12 219.591 262.12C219.085 262.12 218.658 261.987 218.311 261.72C217.978 261.44 217.811 261.027 217.811 260.48V253.56C217.811 253.053 217.978 252.66 218.311 252.38C218.658 252.1 219.071 251.96 219.551 251.96C220.045 251.96 220.438 252.093 220.731 252.36C221.038 252.627 221.191 253 221.191 253.48V253.86C221.405 253.273 221.751 252.82 222.231 252.5C222.725 252.18 223.238 252.007 223.771 251.98L224.051 251.96ZM230.79 251.92C232.31 251.92 233.43 252.287 234.15 253.02C234.883 253.74 235.25 254.84 235.25 256.32V260.5C235.25 261.007 235.097 261.407 234.79 261.7C234.497 261.98 234.083 262.12 233.55 262.12C233.083 262.12 232.697 261.987 232.39 261.72C232.097 261.453 231.937 261.093 231.91 260.64C231.723 261.12 231.41 261.493 230.97 261.76C230.53 262.027 230.003 262.16 229.39 262.16C228.71 262.16 228.097 262.027 227.55 261.76C227.003 261.48 226.57 261.1 226.25 260.62C225.943 260.127 225.79 259.573 225.79 258.96C225.79 258.253 225.97 257.693 226.33 257.28C226.703 256.853 227.29 256.547 228.09 256.36C228.89 256.173 229.97 256.08 231.33 256.08H231.87V255.84C231.87 255.373 231.763 255.04 231.55 254.84C231.337 254.627 230.977 254.52 230.47 254.52C229.923 254.52 229.123 254.707 228.07 255.08C227.763 255.187 227.503 255.24 227.29 255.24C226.957 255.24 226.69 255.12 226.49 254.88C226.29 254.64 226.19 254.327 226.19 253.94C226.19 253.647 226.25 253.407 226.37 253.22C226.49 253.033 226.683 252.867 226.95 252.72C227.417 252.48 228.003 252.287 228.71 252.14C229.417 251.993 230.11 251.92 230.79 251.92ZM230.23 259.78C230.71 259.78 231.103 259.613 231.41 259.28C231.717 258.933 231.87 258.493 231.87 257.96V257.72H231.55C230.697 257.72 230.09 257.8 229.73 257.96C229.37 258.107 229.19 258.36 229.19 258.72C229.19 259.027 229.283 259.28 229.47 259.48C229.67 259.68 229.923 259.78 230.23 259.78ZM239.025 262.12C238.518 262.12 238.092 261.987 237.745 261.72C237.412 261.44 237.245 261.027 237.245 260.48V249.46C237.245 248.913 237.412 248.5 237.745 248.22C238.092 247.94 238.518 247.8 239.025 247.8C239.532 247.8 239.952 247.94 240.285 248.22C240.632 248.5 240.805 248.913 240.805 249.46V260.48C240.805 261.027 240.632 261.44 240.285 261.72C239.952 261.987 239.532 262.12 239.025 262.12ZM244.65 262.12C244.143 262.12 243.717 261.987 243.37 261.72C243.037 261.44 242.87 261.027 242.87 260.48V249.46C242.87 248.913 243.037 248.5 243.37 248.22C243.717 247.94 244.143 247.8 244.65 247.8C245.157 247.8 245.577 247.94 245.91 248.22C246.257 248.5 246.43 248.913 246.43 249.46V260.48C246.43 261.027 246.257 261.44 245.91 261.72C245.577 261.987 245.157 262.12 244.65 262.12ZM196.113 286.08C196.713 286.08 197.153 286.2 197.433 286.44C197.713 286.68 197.853 287.04 197.853 287.52C197.853 288.507 197.273 289 196.113 289H189.173C188.013 289 187.433 288.507 187.433 287.52C187.433 287.04 187.573 286.68 187.853 286.44C188.133 286.2 188.573 286.08 189.173 286.08H190.793V278.86L189.193 279.8C188.966 279.933 188.733 280 188.493 280C188.12 280 187.8 279.84 187.533 279.52C187.266 279.187 187.133 278.82 187.133 278.42C187.133 277.873 187.366 277.46 187.833 277.18L191.033 275.32C191.62 274.987 192.173 274.82 192.693 274.82C193.226 274.82 193.653 274.98 193.973 275.3C194.306 275.62 194.473 276.053 194.473 276.6V286.08H196.113ZM203.865 289.18C202.119 289.18 200.785 288.56 199.865 287.32C198.945 286.08 198.485 284.287 198.485 281.94C198.485 279.607 198.945 277.82 199.865 276.58C200.785 275.34 202.119 274.72 203.865 274.72C205.599 274.72 206.925 275.34 207.845 276.58C208.779 277.82 209.245 279.607 209.245 281.94C209.245 284.287 208.785 286.08 207.865 287.32C206.945 288.56 205.612 289.18 203.865 289.18ZM203.865 286.4C204.505 286.4 204.965 286.053 205.245 285.36C205.525 284.667 205.665 283.527 205.665 281.94C205.665 280.367 205.525 279.233 205.245 278.54C204.965 277.847 204.505 277.5 203.865 277.5C203.225 277.5 202.765 277.847 202.485 278.54C202.205 279.22 202.065 280.353 202.065 281.94C202.065 283.527 202.205 284.667 202.485 285.36C202.765 286.053 203.225 286.4 203.865 286.4ZM215.857 289.18C214.111 289.18 212.777 288.56 211.857 287.32C210.937 286.08 210.477 284.287 210.477 281.94C210.477 279.607 210.937 277.82 211.857 276.58C212.777 275.34 214.111 274.72 215.857 274.72C217.591 274.72 218.917 275.34 219.837 276.58C220.771 277.82 221.237 279.607 221.237 281.94C221.237 284.287 220.777 286.08 219.857 287.32C218.937 288.56 217.604 289.18 215.857 289.18ZM215.857 286.4C216.497 286.4 216.957 286.053 217.237 285.36C217.517 284.667 217.657 283.527 217.657 281.94C217.657 280.367 217.517 279.233 217.237 278.54C216.957 277.847 216.497 277.5 215.857 277.5C215.217 277.5 214.757 277.847 214.477 278.54C214.197 279.22 214.057 280.353 214.057 281.94C214.057 283.527 214.197 284.667 214.477 285.36C214.757 286.053 215.217 286.4 215.857 286.4ZM229.17 288.52C228.996 288.813 228.79 289.033 228.55 289.18C228.323 289.327 228.09 289.4 227.85 289.4C227.53 289.4 227.25 289.28 227.01 289.04C226.77 288.8 226.65 288.507 226.65 288.16C226.65 287.853 226.743 287.54 226.93 287.22L233.79 275.38C233.963 275.087 234.163 274.867 234.39 274.72C234.63 274.573 234.87 274.5 235.11 274.5C235.443 274.5 235.723 274.62 235.95 274.86C236.19 275.087 236.31 275.38 236.31 275.74C236.31 276.047 236.216 276.36 236.03 276.68L229.17 288.52ZM226.19 283.28C225.016 283.28 224.096 282.907 223.43 282.16C222.763 281.413 222.43 280.34 222.43 278.94C222.43 277.567 222.763 276.513 223.43 275.78C224.096 275.033 225.016 274.66 226.19 274.66C227.363 274.66 228.283 275.033 228.95 275.78C229.616 276.513 229.95 277.573 229.95 278.96C229.95 280.36 229.616 281.433 228.95 282.18C228.283 282.913 227.363 283.28 226.19 283.28ZM226.19 281.12C226.496 281.12 226.716 280.96 226.85 280.64C226.996 280.307 227.07 279.747 227.07 278.96C227.07 278.2 226.996 277.66 226.85 277.34C226.703 277.007 226.483 276.84 226.19 276.84C225.883 276.84 225.656 277.007 225.51 277.34C225.376 277.66 225.31 278.2 225.31 278.96C225.31 279.747 225.376 280.307 225.51 280.64C225.656 280.96 225.883 281.12 226.19 281.12ZM236.77 289.14C235.596 289.14 234.676 288.767 234.01 288.02C233.343 287.273 233.01 286.2 233.01 284.8C233.01 283.427 233.343 282.373 234.01 281.64C234.676 280.893 235.596 280.52 236.77 280.52C237.943 280.52 238.863 280.893 239.53 281.64C240.196 282.373 240.53 283.433 240.53 284.82C240.53 286.22 240.196 287.293 239.53 288.04C238.863 288.773 237.943 289.14 236.77 289.14ZM236.77 286.98C237.076 286.98 237.296 286.82 237.43 286.5C237.576 286.167 237.65 285.607 237.65 284.82C237.65 284.06 237.576 283.513 237.43 283.18C237.283 282.847 237.063 282.68 236.77 282.68C236.463 282.68 236.236 282.847 236.09 283.18C235.956 283.5 235.89 284.047 235.89 284.82C235.89 285.607 235.956 286.167 236.09 286.5C236.236 286.82 236.463 286.98 236.77 286.98Z" fill="#242331"/>
<g clip-path="url(#clip0_1_3881)">
<path d="M557.25 54.3333C558.809 54.3333 560.084 53.0583 560.084 51.5C560.084 49.9416 558.809 48.6666 557.25 48.6666C555.692 48.6666 554.417 49.9416 554.417 51.5C554.417 53.0583 555.692 54.3333 557.25 54.3333ZM557.25 57.1666C555.692 57.1666 554.417 58.4416 554.417 60C554.417 61.5583 555.692 62.8333 557.25 62.8333C558.809 62.8333 560.084 61.5583 560.084 60C560.084 58.4416 558.809 57.1666 557.25 57.1666ZM557.25 65.6666C555.692 65.6666 554.417 66.9416 554.417 68.5C554.417 70.0583 555.692 71.3333 557.25 71.3333C558.809 71.3333 560.084 70.0583 560.084 68.5C560.084 66.9416 558.809 65.6666 557.25 65.6666Z" fill="#BDBDBD"/>
</g>
<path d="M521.167 60V69.9167H501.333V60H498.5V69.9167C498.5 71.475 499.775 72.75 501.333 72.75H521.167C522.725 72.75 524 71.475 524 69.9167V60H521.167ZM512.667 60.9492L516.336 57.2942L518.333 59.2917L511.25 66.375L504.167 59.2917L506.164 57.2942L509.833 60.9492V47.25H512.667V60.9492Z" fill="#BDBDBD"/>
<path d="M42.324 52.2V69H45.828V52.2H42.324ZM48.036 69C49.796 69 51.332 68.656 52.644 67.968C53.972 67.28 55.004 66.312 55.74 65.064C56.476 63.8 56.844 62.312 56.844 60.6C56.844 58.888 56.476 57.408 55.74 56.16C55.004 54.896 53.972 53.92 52.644 53.232C51.332 52.544 49.796 52.2 48.036 52.2H44.532V55.32H47.916C48.652 55.32 49.348 55.424 50.004 55.632C50.66 55.824 51.236 56.136 51.732 56.568C52.228 57 52.612 57.552 52.884 58.224C53.172 58.88 53.316 59.672 53.316 60.6C53.316 61.528 53.172 62.328 52.884 63C52.612 63.656 52.228 64.2 51.732 64.632C51.236 65.064 50.66 65.384 50.004 65.592C49.348 65.784 48.652 65.88 47.916 65.88H44.532V69H48.036ZM64.4237 69.24C65.7517 69.24 66.8877 68.984 67.8317 68.472C68.7917 67.944 69.5597 67.16 70.1357 66.12L67.4237 65.28C67.1037 65.808 66.6957 66.208 66.1997 66.48C65.7197 66.736 65.1357 66.864 64.4477 66.864C63.8397 66.864 63.3197 66.728 62.8877 66.456C62.4557 66.184 62.1277 65.792 61.9037 65.28C61.6957 64.768 61.5917 64.144 61.5917 63.408C61.6077 62.64 61.7197 62 61.9277 61.488C62.1517 60.96 62.4637 60.568 62.8637 60.312C63.2797 60.04 63.7917 59.904 64.3997 59.904C64.8957 59.904 65.3277 60.016 65.6957 60.24C66.0637 60.464 66.3437 60.768 66.5357 61.152C66.7437 61.536 66.8477 62 66.8477 62.544C66.8477 62.656 66.8157 62.8 66.7517 62.976C66.7037 63.136 66.6477 63.264 66.5837 63.36L67.4237 62.256H60.2477V64.176H70.1357C70.1517 64.08 70.1597 63.952 70.1597 63.792C70.1757 63.632 70.1837 63.48 70.1837 63.336C70.1837 62.152 69.9597 61.144 69.5117 60.312C69.0637 59.464 68.4077 58.824 67.5437 58.392C66.6957 57.944 65.6637 57.72 64.4477 57.72C63.2317 57.72 62.1757 57.96 61.2797 58.44C60.3837 58.904 59.6877 59.568 59.1917 60.432C58.7117 61.28 58.4717 62.296 58.4717 63.48C58.4717 64.648 58.7117 65.664 59.1917 66.528C59.6877 67.376 60.3837 68.04 61.2797 68.52C62.1757 69 63.2237 69.24 64.4237 69.24ZM75.5762 74.28V57.96H72.4562V74.28H75.5762ZM84.6482 63.48C84.6482 62.216 84.4002 61.152 83.9042 60.288C83.4082 59.408 82.7522 58.744 81.9362 58.296C81.1362 57.848 80.2722 57.624 79.3442 57.624C78.4002 57.624 77.5762 57.864 76.8722 58.344C76.1842 58.824 75.6482 59.504 75.2642 60.384C74.8962 61.248 74.7122 62.28 74.7122 63.48C74.7122 64.664 74.8962 65.696 75.2642 66.576C75.6482 67.456 76.1842 68.136 76.8722 68.616C77.5762 69.096 78.4002 69.336 79.3442 69.336C80.2722 69.336 81.1362 69.112 81.9362 68.664C82.7522 68.216 83.4082 67.552 83.9042 66.672C84.4002 65.792 84.6482 64.728 84.6482 63.48ZM81.4322 63.48C81.4322 64.136 81.2962 64.696 81.0242 65.16C80.7522 65.624 80.3842 65.976 79.9202 66.216C79.4722 66.456 78.9762 66.576 78.4322 66.576C77.9682 66.576 77.5122 66.464 77.0642 66.24C76.6322 66 76.2722 65.648 75.9842 65.184C75.7122 64.72 75.5762 64.152 75.5762 63.48C75.5762 62.808 75.7122 62.24 75.9842 61.776C76.2722 61.312 76.6322 60.968 77.0642 60.744C77.5122 60.504 77.9682 60.384 78.4322 60.384C78.9762 60.384 79.4722 60.504 79.9202 60.744C80.3842 60.984 80.7522 61.336 81.0242 61.8C81.2962 62.264 81.4322 62.824 81.4322 63.48ZM89.1737 65.568C89.1737 65.248 89.2457 64.984 89.3897 64.776C89.5337 64.552 89.7577 64.384 90.0617 64.272C90.3657 64.144 90.7577 64.08 91.2377 64.08C91.8297 64.08 92.3897 64.16 92.9177 64.32C93.4617 64.48 93.9497 64.72 94.3817 65.04V63.6C94.2217 63.408 93.9577 63.208 93.5897 63C93.2217 62.792 92.7657 62.616 92.2217 62.472C91.6937 62.328 91.0777 62.256 90.3737 62.256C88.9977 62.256 87.9337 62.568 87.1817 63.192C86.4297 63.816 86.0537 64.664 86.0537 65.736C86.0537 66.488 86.2297 67.128 86.5817 67.656C86.9497 68.168 87.4297 68.56 88.0217 68.832C88.6137 69.104 89.2537 69.24 89.9417 69.24C90.6137 69.24 91.2537 69.12 91.8617 68.88C92.4857 68.64 92.9897 68.28 93.3737 67.8C93.7737 67.32 93.9737 66.728 93.9737 66.024L93.5897 64.584C93.5897 65.112 93.4697 65.568 93.2297 65.952C92.9897 66.32 92.6777 66.608 92.2937 66.816C91.9097 67.008 91.4777 67.104 90.9977 67.104C90.6617 67.104 90.3497 67.048 90.0617 66.936C89.7897 66.808 89.5737 66.632 89.4137 66.408C89.2537 66.168 89.1737 65.888 89.1737 65.568ZM87.9737 61.08C88.1337 60.968 88.3817 60.832 88.7177 60.672C89.0537 60.512 89.4537 60.376 89.9177 60.264C90.3817 60.152 90.8697 60.096 91.3817 60.096C91.7177 60.096 92.0217 60.128 92.2937 60.192C92.5657 60.256 92.7977 60.36 92.9897 60.504C93.1977 60.648 93.3497 60.832 93.4457 61.056C93.5417 61.264 93.5897 61.52 93.5897 61.824V69H96.5897V61.176C96.5897 60.424 96.3817 59.792 95.9657 59.28C95.5497 58.752 94.9737 58.352 94.2377 58.08C93.5017 57.808 92.6617 57.672 91.7177 57.672C90.6937 57.672 89.7657 57.816 88.9337 58.104C88.1017 58.376 87.3977 58.664 86.8217 58.968L87.9737 61.08ZM102.529 57.96H99.4813V69H102.529V57.96ZM105.769 61.2L107.185 58.56C106.961 58.272 106.665 58.056 106.297 57.912C105.945 57.768 105.569 57.696 105.169 57.696C104.593 57.696 104.033 57.904 103.489 58.32C102.945 58.72 102.505 59.264 102.169 59.952C101.833 60.624 101.665 61.4 101.665 62.28L102.529 63.144C102.529 62.616 102.593 62.168 102.721 61.8C102.865 61.416 103.073 61.12 103.345 60.912C103.617 60.704 103.945 60.6 104.329 60.6C104.649 60.6 104.913 60.656 105.121 60.768C105.345 60.864 105.561 61.008 105.769 61.2ZM107.417 57.96V60.576H114.233V57.96H107.417ZM109.313 54.12V69H112.313V54.12H109.313ZM132.208 61.944C132.208 61.048 132.08 60.288 131.824 59.664C131.584 59.024 131.208 58.544 130.696 58.224C130.184 57.888 129.52 57.72 128.704 57.72C127.952 57.72 127.28 57.88 126.688 58.2C126.112 58.52 125.624 58.992 125.224 59.616C124.984 58.992 124.6 58.52 124.072 58.2C123.544 57.88 122.872 57.72 122.056 57.72C121.32 57.72 120.688 57.88 120.16 58.2C119.632 58.52 119.208 58.984 118.888 59.592V57.96H115.888V69H118.888V62.28C118.888 61.8 118.968 61.392 119.128 61.056C119.288 60.704 119.512 60.448 119.8 60.288C120.088 60.112 120.424 60.024 120.808 60.024C121.384 60.024 121.8 60.216 122.056 60.6C122.312 60.968 122.44 61.528 122.44 62.28V69H125.536V62.28C125.536 61.8 125.616 61.392 125.776 61.056C125.936 60.704 126.16 60.448 126.448 60.288C126.736 60.112 127.072 60.024 127.456 60.024C128.032 60.024 128.448 60.216 128.704 60.6C128.96 60.968 129.088 61.528 129.088 62.28V69H132.208V61.944ZM140.478 69.24C141.806 69.24 142.942 68.984 143.886 68.472C144.846 67.944 145.614 67.16 146.19 66.12L143.478 65.28C143.158 65.808 142.75 66.208 142.254 66.48C141.774 66.736 141.19 66.864 140.502 66.864C139.894 66.864 139.374 66.728 138.942 66.456C138.51 66.184 138.182 65.792 137.958 65.28C137.75 64.768 137.646 64.144 137.646 63.408C137.662 62.64 137.774 62 137.982 61.488C138.206 60.96 138.518 60.568 138.918 60.312C139.334 60.04 139.846 59.904 140.454 59.904C140.95 59.904 141.382 60.016 141.75 60.24C142.118 60.464 142.398 60.768 142.59 61.152C142.798 61.536 142.902 62 142.902 62.544C142.902 62.656 142.87 62.8 142.806 62.976C142.758 63.136 142.702 63.264 142.638 63.36L143.478 62.256H136.302V64.176H146.19C146.206 64.08 146.214 63.952 146.214 63.792C146.23 63.632 146.238 63.48 146.238 63.336C146.238 62.152 146.014 61.144 145.566 60.312C145.118 59.464 144.462 58.824 143.598 58.392C142.75 57.944 141.718 57.72 140.502 57.72C139.286 57.72 138.23 57.96 137.334 58.44C136.438 58.904 135.742 59.568 135.246 60.432C134.766 61.28 134.526 62.296 134.526 63.48C134.526 64.648 134.766 65.664 135.246 66.528C135.742 67.376 136.438 68.04 137.334 68.52C138.23 69 139.278 69.24 140.478 69.24ZM155.711 62.28V69H158.927V61.944C158.927 60.616 158.607 59.584 157.967 58.848C157.327 58.096 156.351 57.72 155.039 57.72C154.255 57.72 153.583 57.888 153.023 58.224C152.479 58.544 152.039 59.016 151.703 59.64V57.96H148.583V69H151.703V62.28C151.703 61.816 151.791 61.416 151.967 61.08C152.143 60.744 152.399 60.488 152.735 60.312C153.071 60.12 153.455 60.024 153.887 60.024C154.527 60.024 154.991 60.216 155.279 60.6C155.567 60.984 155.711 61.544 155.711 62.28ZM160.573 57.96V60.576H167.389V57.96H160.573ZM162.469 54.12V69H165.469V54.12H162.469ZM169.596 65.184L168.084 67.128C168.5 67.528 168.964 67.904 169.476 68.256C170.004 68.592 170.588 68.864 171.228 69.072C171.884 69.28 172.604 69.384 173.388 69.384C174.652 69.384 175.644 69.08 176.364 68.472C177.084 67.848 177.444 66.984 177.444 65.88C177.444 65.208 177.292 64.664 176.988 64.248C176.684 63.832 176.276 63.488 175.764 63.216C175.268 62.928 174.724 62.672 174.132 62.448C173.652 62.24 173.22 62.064 172.836 61.92C172.468 61.776 172.18 61.616 171.972 61.44C171.78 61.248 171.684 61.032 171.684 60.792C171.684 60.52 171.78 60.32 171.972 60.192C172.18 60.048 172.46 59.976 172.812 59.976C173.34 59.976 173.876 60.112 174.42 60.384C174.98 60.656 175.46 61.008 175.86 61.44L177.228 59.52C176.876 59.168 176.468 58.864 176.004 58.608C175.54 58.336 175.036 58.12 174.492 57.96C173.948 57.8 173.364 57.72 172.74 57.72C172.004 57.72 171.332 57.84 170.724 58.08C170.132 58.304 169.66 58.648 169.308 59.112C168.956 59.56 168.78 60.112 168.78 60.768C168.78 61.456 168.932 62.024 169.236 62.472C169.556 62.904 169.956 63.256 170.436 63.528C170.916 63.784 171.412 64.008 171.924 64.2C172.468 64.376 172.916 64.544 173.268 64.704C173.62 64.864 173.884 65.048 174.06 65.256C174.252 65.448 174.348 65.688 174.348 65.976C174.348 66.296 174.236 66.552 174.012 66.744C173.788 66.92 173.468 67.008 173.052 67.008C172.732 67.008 172.388 66.944 172.02 66.816C171.668 66.688 171.292 66.496 170.892 66.24C170.492 65.968 170.06 65.616 169.596 65.184Z" fill="#242331"/>
<defs>
<clipPath id="clip0_1_3881">
<rect width="34" height="34" fill="white" transform="translate(540.25 43)"/>
</clipPath>
</defs>
</svg>
